<svg width="206" height="106" viewBox="0 0 206 106" fill="none" xmlns="http://www.w3.org/2000/svg">
<g clip-path="url(#clip0_102_34)">
<path d="M158.04 20.52C157.67 20.93 158.65 19.11 159.21 19.13C159.77 19.15 153.4 17.85 148.5 20.3C147.94 20.21 149.45 18.83 149.32 18.63C149.19 18.43 145.66 19.87 142.86 21.95C142.27 22.47 143.73 19.89 143.29 19.59C142.86 19.29 142.36 21.02 141.21 20.91C140.82 21.08 143.2 16.03 144.46 14.86C145 14.25 142.4 14.69 142.4 14.69C142.4 14.69 143.96 12.44 146.11 10.68" fill="#B9EEE9"/>
<path d="M138.58 8.58999C138.34 8.49999 137.87 8.67001 136.74 12.89C136.46 12.98 135.92 10.85 135.92 10.85C135.92 10.85 134.23 13.36 134.49 19.93C134.46 20.43 133.63 17.26 129.61 14.08C128.77 13.82 130.51 14.54 130.39 16.54C130.36 17.35 127.47 11.48 122.96 11.16C122.35 11.3 124.55 11.91 124.29 13.18C124.03 14.45 123.28 10.95 115.5 13.27C115.5 13.27 117.52 17.06 120.53 18.79C120.91 19.4 117.9 18.85 117.7 18.7C117.5 18.56 119.93 21.19 124.29 22.28C125.13 22.83 121.28 22.28 121.28 22.28C121.28 22.28 122.68 23.9 126.08 24.88C127.42 25.13 123.78 24.68 123.68 25.07C123.58 25.46 124.82 26.3 124.66 26.36C124.5 26.42 118.91 25.84 116.21 28.04C116.21 28.04 117.83 28.08 117.79 28.63C117.75 29.18 114.65 28.66 110.12 33.53C110.12 33.53 111.55 33.21 111.78 33.53C112.01 33.85 108.76 35.5 108.66 39.45C108.66 40.46 115.52 38.05 115.52 38.05C115.52 38.05 114.84 39.23 114.97 39.52C115.1 39.81 118.44 38.67 120.89 34.94C120.89 34.94 120.95 35.84 120.4 37.06C120.4 37.06 121.89 37.44 125.8 33.95C125.8 33.95 125.34 35.08 124.96 35.64C124.96 35.64 125.88 35.87 128.4 35.06C128.4 35.06 127.71 36.3 127.08 38.48L129.02 37.73C129.02 37.73 126.22 40.94 126.38 46.04C126.38 46.04 127.49 45.26 128.4 45.12C128.4 45.12 126.07 49.47 128.07 55.42C128.07 55.42 129.02 55.32 129.34 54.78C129.34 54.78 128.21 58.46 132.94 63.93C132.94 63.93 134.5 61.33 134.28 55.22C134.28 55.22 134.67 55 135.8 56.87C136.28 57.56 137.45 49.5 135.67 46.68C135.32 46.2 136.32 46.03 137.32 48.33C137.71 49.33 139.57 42.39 137.67 38.4C137.15 37.14 138.62 38.88 139.36 40.13C140.1 41.39 139.4 37.83 139.4 37.83C139.4 37.83 140.98 41.41 141.52 41.71C142.06 42.01 142.97 37.83 143.8 39.37C144.62 40.91 141.22 40.78 148.33 49.19C148.98 49.75 149.2 46.72 149.93 47.33C150.67 47.94 148.8 49.37 150.58 52.45C151.23 52.93 151.66 50.41 152.36 51.15C152.36 51.76 152.14 53.66 154.57 56.01C155.48 57.61 155.48 58.09 155.48 58.09C155.48 58.09 158.38 50.59 155.89 46.39C155.2 45.13 157.52 46.95 157.52 46.95C157.52 46.95 156.41 40.49 150.35 36.42C149.24 35.68 153.02 37.37 153.02 37.37C153.02 37.37 151.29 33.36 145.04 30.28C144.06 30 149.61 30.63 149.61 30.63C149.61 30.63 148.74 29.11 148.74 28.85C148.74 28.59 153.83 31.88 157.71 30.74C158.97 30.26 156.73 30.26 156.69 28.7C156.69 28.07 161.59 31.13 163.97 29.89C164.95 29.54 162.39 29.07 162.11 27.48C161.83 25.9 164.54 29 168.74 26.4C169.85 25.66 164.06 22.52 164.06 22.52" fill="#B9EEE9"/>
<path d="M138.28 34.48C138.28 34.48 148.34 54.55 132.3 101.02H139.32C139.32 101.02 150.85 72.53 141.75 34.48H138.28Z" fill="#B9EEE9"/>
<path d="M53.0399 97.33C49.8299 96.34 42.0399 95.51 33.3699 97.66C24.6999 99.81 15.6299 97.33 15.6299 97.33C24.9099 101.47 35.7499 100.26 41.5499 99.05C47.3499 97.84 53.0399 97.33 53.0399 97.33Z" fill="#B9EEE9"/>
<path d="M89.2698 94.71C93.4198 94.68 98.8798 96.09 99.9098 96.36C100.04 96.39 100.18 96.32 100.22 96.18C100.24 96.11 100.22 96.03 100.19 95.96C98.8098 93.96 98.2798 94.05 90.2598 92.75C82.0498 91.42 81.4698 93.95 81.0998 95.42C80.7298 96.89 80.2298 96.73 72.9398 95.78C65.6498 94.83 62.3698 96.03 60.8798 96.69C59.3898 97.35 55.8198 98.76 52.5098 99.26C49.1998 99.76 41.0498 101.37 41.0498 101.37C50.6798 102.93 57.3198 100.64 61.7098 99.27C66.0998 97.9 73.8098 98.03 79.8598 99.6C85.9098 101.17 83.9998 94.75 89.2698 94.71Z" fill="#B9EEE9"/>
<path d="M88.3998 100.76C85.4198 102.86 72.2598 102.53 72.2598 102.53C75.7998 104.19 84.0298 104.41 86.5698 104.25C89.1098 104.09 89.6098 104.36 91.9798 101.54C94.3598 98.72 100.87 98.33 100.87 98.33C87.6698 96.62 91.3698 98.66 88.3898 100.77L88.3998 100.76Z" fill="#B9EEE9"/>
<path d="M115.42 100.43C109.25 102.25 109.96 97.29 105.94 97.14C105.84 97.14 105.77 97.21 105.76 97.31C105.76 97.35 105.76 97.38 105.79 97.42C106.17 97.93 106.98 99.04 107.51 99.82C108.23 100.87 108.94 103.08 114.03 102.47C119.12 101.86 118.07 100.99 130.17 100.99C130.17 100.99 122.29 98.4 115.42 100.43Z" fill="#B9EEE9"/>
<path d="M111.61 96.54C114.59 98.79 116.21 99.07 119.69 98.53C123.17 97.99 125.74 97.87 125.74 97.87C123.46 95.88 116.75 97.15 114.43 94.1C112.97 92.18 111.11 92.24 111.11 92.24C105.82 92.24 104.32 95.64 104.07 96.3C104.05 96.37 104.05 96.45 104.07 96.52C104.12 96.63 104.24 96.69 104.35 96.68L104.66 96.64C108.01 96.15 109.39 94.9 111.59 96.56L111.61 96.54Z" fill="#B9EEE9"/>
<path d="M56.8802 70.69C56.8702 70.6 56.7802 70.54 56.6902 70.56C56.6502 70.56 56.6102 70.59 56.5802 70.63L55.8602 71.67C55.7902 71.78 55.7402 71.91 55.7402 72.04V72.6C55.7402 72.6 56.7602 71.52 56.8602 71.14C56.9002 70.99 56.9002 70.84 56.8702 70.7L56.8802 70.69Z" fill="#B9EEE9"/>
<path d="M57.8598 70.09L58.8098 69.09C58.9498 68.94 59.0198 68.76 59.0198 68.56V67.73C59.0198 67.73 58.9898 67.67 58.9598 67.67C58.9498 67.67 58.9198 67.67 58.9198 67.69L58.4098 68.24C58.0198 68.67 57.7998 69.23 57.7998 69.81V70.07C57.7998 70.07 57.8098 70.11 57.8398 70.11C57.8398 70.11 57.8498 70.1 57.8598 70.09Z" fill="#B9EEE9"/>
<path d="M60.8599 66.69C61.2899 66.27 61.5299 65.7 61.5299 65.09V64.44C61.5299 64.44 61.4899 64.37 61.4599 64.37C61.4399 64.37 61.4199 64.37 61.4099 64.4L60.3099 65.9C60.0699 66.23 60.0099 66.65 60.1599 67.03C60.1699 67.07 60.1999 67.12 60.2299 67.16C60.4599 67.03 60.6699 66.88 60.8599 66.69Z" fill="#B9EEE9"/>
<path d="M109.36 55.32H109.26C109.17 55.32 109.08 55.32 108.98 55.33C109.3 55.32 109.63 55.3 109.95 55.29C109.75 55.29 109.56 55.31 109.36 55.32ZM108.2 55.38C108.03 55.38 107.86 55.4 107.69 55.41C107.62 55.41 107.54 55.41 107.47 55.42C107.75 55.41 108.04 55.38 108.31 55.37C108.29 55.37 108.26 55.37 108.24 55.37H108.2V55.38ZM108.98 55.34C108.75 55.35 108.54 55.36 108.31 55.38C108.43 55.38 108.56 55.37 108.69 55.36C108.78 55.36 108.89 55.36 108.98 55.35V55.34ZM110.53 55.27C110.6 55.27 110.68 55.27 110.75 55.27C110.71 55.27 110.66 55.27 110.62 55.27H110.53ZM108.19 55.38C108.02 55.38 107.85 55.4 107.68 55.41C107.61 55.41 107.53 55.41 107.46 55.42C107.74 55.41 108.03 55.38 108.3 55.37C108.28 55.37 108.25 55.37 108.23 55.37H108.19V55.38ZM109.35 55.32H109.25C109.16 55.32 109.07 55.32 108.97 55.33C109.29 55.32 109.62 55.3 109.94 55.29C109.74 55.29 109.55 55.31 109.35 55.32ZM108.68 55.35C108.77 55.35 108.88 55.35 108.97 55.34C108.74 55.35 108.53 55.36 108.3 55.38C108.43 55.38 108.55 55.37 108.68 55.36V55.35ZM79.6497 34.75C79.6397 35.25 79.6197 35.68 79.6097 36.03C79.5997 36.38 79.5897 36.65 79.5797 36.83C79.5797 36.98 79.4597 37.11 79.3197 37.13C78.1397 37.33 76.9297 37.75 75.8097 38.25C75.8097 37.85 75.8297 36.57 75.8297 35.58C75.8297 34.98 75.8297 34.5 75.8097 34.36C75.7697 34.07 75.5397 33.79 75.4097 33.66C75.3897 33.64 75.3497 33.64 75.3397 33.66C75.3397 33.66 75.3297 33.68 75.3297 33.7L75.2797 35.36H73.0597C72.9597 35.36 72.8797 35.44 72.8797 35.54C72.8797 35.64 72.9597 35.72 73.0597 35.72H75.2697L75.2197 37.31H73.6397C73.5597 37.31 73.4897 37.38 73.4897 37.46C73.4897 37.54 73.5597 37.61 73.6397 37.61H75.2097L75.1797 38.56C74.2697 39 73.4097 39.53 72.5997 40.11C71.8997 40.63 71.3697 41.13 71.1297 41.53C70.2997 42.87 69.4397 43.3 69.4397 43.3C67.0397 44.44 64.7197 46.12 62.9997 47.52C62.1297 48.22 61.4097 48.86 60.9197 49.31C60.9197 48.79 60.8897 48 60.8597 47.13C60.8297 46.26 60.7997 45.31 60.7797 44.47H62.3397C62.4797 44.47 62.5897 44.35 62.5897 44.22C62.5897 44.09 62.4697 43.97 62.3397 43.97H60.7597C60.7397 43.26 60.7197 42.68 60.7097 42.37C60.7097 42.22 60.5897 42.11 60.4497 42.11C60.3097 42.11 60.1897 42.23 60.1897 42.37C60.1897 42.79 60.1597 43.35 60.1297 43.97H58.0897C57.9497 43.97 57.8397 44.09 57.8397 44.22C57.8397 44.35 57.9597 44.47 58.0897 44.47H60.1097C60.0897 44.88 60.0697 45.31 60.0497 45.74H58.6297C58.5497 45.74 58.4797 45.81 58.4797 45.89C58.4797 45.97 58.5497 46.04 58.6297 46.04H60.0297C59.9297 48.07 59.8297 50.03 59.8297 50.03H55.1497V56.56C55.8297 56.57 56.4797 56.59 57.0997 56.59C57.3097 57 57.3897 57.68 56.6397 58.66C55.3297 60.36 55.6197 62.44 55.6997 63.28C55.7797 64.12 55.2997 65.71 53.4897 69.31C51.9997 72.25 52.1997 73.05 52.3097 73.24C52.3197 73.26 52.3497 73.26 52.3697 73.24C52.3697 73.24 52.3797 73.24 52.3797 73.23C52.9997 71.76 55.0697 67.63 56.4097 65.1C57.7697 62.54 58.5697 60.6 60.4797 60.53C62.1097 60.46 61.1997 61.21 61.1997 61.21C56.3697 66.2 52.9497 74.67 52.8397 74.93C52.9297 74.75 53.0397 74.57 53.1297 74.39C53.3497 74.06 53.5597 73.87 53.7097 73.76C53.8597 73.65 53.9597 73.63 53.9597 73.63C54.0097 74.02 54.0897 74.23 54.1297 74.33C54.1497 74.37 54.1997 74.4 54.2497 74.38C54.6797 74.24 54.9297 73.12 54.9997 72.83C55.0097 72.78 54.9897 72.74 54.9297 72.72C54.8797 72.71 54.8397 72.73 54.8197 72.79C54.7697 72.96 54.6497 73.25 54.4297 73.25C54.0997 73.25 54.4297 72.14 54.4297 72.11C56.2397 69.11 57.9497 66.98 59.3097 65.55C60.6697 64.11 61.6697 63.34 62.0797 63.06C62.1497 63.01 62.2597 63.02 62.3097 63.1C62.3197 63.11 62.3297 63.14 62.3397 63.16C62.6897 64.58 62.5897 67.32 62.5297 68.48C59.2797 70.73 56.1797 73.37 52.8397 76.54C43.1797 85.72 43.5497 92.66 43.5497 92.66C50.1597 73.78 74.1497 64.02 74.1497 64.02C94.8397 55.96 116.4 57.49 118.69 57.63C120.98 57.77 119.63 59.77 119.63 59.77C118.11 62.89 114.4 68.84 109.97 77.27C106.23 84.38 103.92 90.58 103.28 92.34C103.19 92.61 103.33 92.89 103.6 92.99C103.8 93.06 104.02 92.99 104.16 92.83C106.66 89.61 109.42 85.35 113.09 80.55C116.87 75.61 124.23 66.18 124.23 66.18C124.85 65.25 125.46 64.02 125.57 63.16C126.19 57.97 124.7 56.05 120.34 55.57C117.83 55.29 115.11 55.21 112.37 55.26C111.91 55.11 111.83 54.48 111.82 54.11C111.82 53.94 111.7 53.79 111.52 53.75C109.23 53.28 106.47 52.14 105.25 51.57C104.82 51.37 104.54 50.95 104.5 50.48L104.26 46.98C103.64 41.77 93.8897 40.41 91.0797 40.13C90.5597 40.07 90.0797 39.88 89.6697 39.56C89.3397 39.29 89.0497 38.98 88.8197 38.63C88.5397 38.25 88.1997 37.93 87.7997 37.69C87.2597 37.39 83.8797 37.28 82.2897 37.22C81.8097 37.2 81.4197 36.82 81.3797 36.34C81.0997 33.11 80.5397 26.94 80.4097 25.54C80.4097 25.37 80.2497 25.24 80.0797 25.24C79.9097 25.24 79.7797 25.4 79.7797 25.57C79.7797 26.03 79.7797 26.5 79.7797 26.95C79.7797 30.14 79.7097 32.91 79.6597 34.75M75.2297 39.98C76.1397 39.3 76.2797 39.86 76.2897 39.97C78.9197 37.35 82.0397 38.18 85.0897 38.18C88.1397 38.18 88.5297 39.99 88.5297 39.99C88.1497 39.99 87.7697 39.98 87.3997 39.98C80.9497 39.98 75.6797 41.22 72.7497 42.11C71.6797 41.75 74.2197 40.72 75.2097 39.98H75.2297ZM61.5997 50.13C61.5997 50.13 61.5997 50.11 61.6097 50.1C62.3497 49.15 68.3697 41.98 82.7397 41.2C96.7197 40.45 102.67 43.55 103.03 46.5L102.79 46.67C102.79 46.67 94.8697 43.48 81.5697 44.33C67.9697 45.19 64.1997 51.05 61.6597 50.25C61.5997 50.25 61.5797 50.18 61.5897 50.13H61.5997ZM100.08 46.52V49.19C100.08 49.31 99.9997 49.41 99.9097 49.38L98.5997 48.91C98.5097 48.87 98.4297 48.74 98.4297 48.6V46.01C98.4297 45.86 98.5197 45.75 98.6297 45.78L99.8897 46.18C99.9997 46.21 100.08 46.35 100.08 46.52ZM92.7497 45.09V47.07C92.7497 47.33 92.5397 47.55 92.2697 47.55H91.1697C90.9397 47.55 90.7597 47.37 90.7597 47.14V45.09C90.7597 44.86 90.9497 44.66 91.1797 44.66H92.3097C92.5497 44.66 92.7397 44.86 92.7397 45.09H92.7497ZM84.7997 44.94V46.96C84.7997 47.23 84.5797 47.45 84.3097 47.45H83.1797C82.9497 47.45 82.7697 47.26 82.7597 47.04V44.95C82.7597 44.71 82.9597 44.51 83.1997 44.51H84.3597C84.6097 44.51 84.7997 44.7 84.7997 44.94ZM75.9297 45.76V48.02C75.9297 48.15 75.8397 48.26 75.7197 48.29L74.0797 48.7C73.9897 48.72 73.8997 48.66 73.8797 48.58C73.8797 48.57 73.8797 48.55 73.8797 48.54V46.22C73.8797 46.07 73.9797 45.94 74.1297 45.92L75.6997 45.57C75.8097 45.55 75.9197 45.61 75.9397 45.72C75.9397 45.74 75.9397 45.76 75.9397 45.77L75.9297 45.76ZM75.0697 61.93C75.0497 61.71 74.9997 61.49 74.9397 61.28C74.8597 61 74.6097 60.82 74.3297 60.81C71.7097 60.71 68.8297 60.94 67.6197 61.06C67.2897 61.09 67.0297 61.38 67.0497 61.72C67.0597 62.13 67.0897 62.6 67.1197 62.88C67.1197 63.02 67.2497 63.13 67.3897 63.13C70.3097 63.02 71.7197 63.01 72.3797 63.04C71.5497 63.4 70.7297 63.77 69.9397 64.16C69.1497 64.54 68.3797 64.94 67.6197 65.36C66.8897 65.6 65.8597 65.68 65.1697 65.7C64.7497 65.71 64.3897 65.39 64.3697 64.97V64.94C64.3697 63.87 64.4397 62.62 64.4997 61.89C64.5297 61.49 64.5897 61.09 64.6697 60.71C64.6997 60.58 64.7997 60.48 64.9397 60.46C66.2297 60.3 68.2397 59.93 71.4197 59.13C74.7897 58.29 78.0297 57.85 78.0297 57.85C84.7097 57.33 87.7297 57.68 88.8597 57.89C83.5097 59.12 79.0197 60.42 75.0797 61.93H75.0697ZM98.4197 56.34C97.1197 56.51 95.9097 56.67 94.8297 56.84C92.0297 56.86 88.3297 56.54 84.1897 56.46C78.4497 56.34 71.7197 57.74 69.3797 58.42C67.0397 59.1 62.7497 59.58 61.0097 59.7C59.2697 59.82 59.1697 59.19 59.0497 58.03C59.0097 57.55 59.0497 57.07 59.1697 56.61C70.0697 56.36 70.4497 53.75 81.2397 53.92C96.0497 54.16 98.4497 55.87 98.4497 55.87C98.7297 55.99 98.6097 56.17 98.4297 56.33L98.4197 56.34ZM72.0797 54.24V52.27C72.0797 52.15 72.1597 52.04 72.2797 52.01L73.5497 51.72C73.6397 51.71 73.7197 51.76 73.7497 51.85V53.8C73.7497 53.91 73.6797 54 73.5797 54.03L72.2397 54.39C72.1697 54.4 72.0897 54.36 72.0697 54.29C72.0697 54.28 72.0697 54.26 72.0697 54.25L72.0797 54.24ZM80.5497 53.11V50.95C80.5497 50.7 80.7397 50.51 80.9897 50.5H82.1497C82.3997 50.5 82.5897 50.7 82.5897 50.95V53.03C82.5897 53.31 82.3797 53.53 82.0997 53.54H80.9697C80.7297 53.54 80.5497 53.35 80.5497 53.11ZM89.8397 53.53V51C89.8397 50.83 89.9797 50.69 90.1497 50.69H90.1897L91.4697 50.85C91.6297 50.87 91.7497 51 91.7497 51.17V53.77C91.7497 53.97 91.5797 54.14 91.3897 54.14C91.3697 54.14 91.3497 54.14 91.3197 54.14L90.1697 53.94C89.9797 53.9 89.8497 53.74 89.8497 53.55L89.8397 53.53ZM100.03 55.79L98.7697 55.34C98.6797 55.3 98.6097 55.19 98.6097 55.05V52.63C98.6097 52.49 98.6997 52.39 98.7997 52.42L99.9997 52.79C100.11 52.83 100.19 52.96 100.19 53.12V55.62C100.19 55.74 100.11 55.82 100.03 55.79ZM111.3 55.29C111.12 55.29 110.94 55.3 110.76 55.3C110.72 55.3 110.67 55.3 110.63 55.3C110.6 55.3 110.57 55.3 110.54 55.3C110.43 55.3 110.31 55.3 110.21 55.31C110.12 55.31 110.04 55.31 109.96 55.31C109.76 55.31 109.57 55.32 109.37 55.34H109.27C109.18 55.34 109.09 55.34 108.99 55.35C108.76 55.36 108.55 55.37 108.32 55.39C108.3 55.39 108.27 55.39 108.25 55.39H108.21C108.04 55.39 107.87 55.41 107.7 55.42C107.63 55.42 107.55 55.42 107.48 55.43C107.36 55.43 107.25 55.44 107.14 55.45H107.13C107.13 55.45 107.09 55.45 107.06 55.45C107 55.45 106.94 55.45 106.88 55.46C106.82 55.47 106.76 55.46 106.71 55.47C106.69 55.47 106.66 55.47 106.64 55.47C106.56 55.47 106.48 55.48 106.4 55.48C106.25 55.48 106.12 55.5 105.97 55.51C104.01 54.15 97.5297 50.25 87.0397 49.98C87.0397 49.98 78.2897 49.36 71.6797 51.93C69.8297 52.65 67.8697 53.03 65.8797 53.04L58.2497 53.09C57.9797 53.09 57.7597 52.87 57.7597 52.6V51.18H64.4497C66.3997 51.18 68.3297 50.84 70.1597 50.19C73.1097 49.13 78.5897 47.61 85.6297 47.61C96.4297 47.61 99.1297 49.4 104.27 51.73C104.27 51.73 106.54 52.99 110.39 54.1C110.39 54.1 111.79 54.54 111.3 55.23V55.29ZM123.58 62.43C123.38 64.51 120.73 68.23 115.94 74.18C111.96 79.12 110.19 81.23 109.34 81.91C109.28 81.95 109.2 81.95 109.16 81.9C109.12 81.86 109.12 81.81 109.15 81.75C110.2 79.8 114.69 71.53 117.16 67.65C119.51 63.95 121.73 60.46 122.39 59.43C122.47 59.31 122.63 59.27 122.75 59.34C122.78 59.36 122.81 59.38 122.82 59.41C123.42 60.29 123.7 61.36 123.59 62.42L123.58 62.43ZM109.37 55.37H109.27C109.18 55.37 109.09 55.37 108.99 55.38C109.31 55.37 109.64 55.35 109.96 55.34C109.76 55.34 109.57 55.36 109.37 55.37ZM108.99 55.38C108.76 55.39 108.55 55.4 108.32 55.42C108.44 55.42 108.57 55.41 108.7 55.4C108.79 55.4 108.9 55.4 108.99 55.39V55.38ZM108.21 55.42C108.04 55.42 107.87 55.44 107.7 55.45C107.63 55.45 107.55 55.45 107.48 55.46C107.76 55.45 108.05 55.42 108.32 55.41C108.3 55.41 108.27 55.41 108.25 55.41H108.21V55.42ZM110.55 55.31C110.62 55.31 110.7 55.31 110.77 55.31C110.73 55.31 110.68 55.31 110.64 55.31H110.55Z" fill="#B9EEE9"/>
<path d="M66.5597 77.25L66.4897 70.51C66.4897 70.31 66.2797 70.1 66.0897 70.17L65.5497 70.39C64.9297 70.64 64.4997 71.29 64.4297 71.95C64.1997 74.08 64.7797 76.65 64.7797 76.65C54.3597 83.52 52.6597 85.89 52.6597 85.89C59.3297 81.5 62.4497 80.12 63.4297 79.74C63.7497 79.61 64.1097 79.67 64.3697 79.9C64.6597 80.17 64.6397 80.5 64.5497 80.76C64.4697 80.98 64.3197 81.16 64.1097 81.27C53.6797 86.74 49.4697 90.22 49.4697 90.22C57.1697 85.77 63.6797 84.48 63.6497 84.72C63.6197 84.96 62.0497 86.15 62.0497 86.15C66.4597 84.82 69.3597 86.54 69.3597 86.54C66.2597 78.89 66.5497 77.25 66.5497 77.25H66.5597Z" fill="#B9EEE9"/>
<path d="M84.64 69.83C84.46 69.82 84.27 69.83 84.1 69.89L80.59 70.94C80.22 71.05 79.96 71.4 79.96 71.78V72.76C79.96 73.37 80.45 73.86 81.06 73.86C81.15 73.86 81.23 73.86 81.31 73.83L85.01 72.97C85.32 72.9 85.55 72.61 85.55 72.29V70.79C85.55 70.25 85.19 69.88 84.64 69.83ZM85.13 72.02C85.13 72.27 84.96 72.5 84.71 72.56L82.7 73.08C82.65 73.09 82.59 73.1 82.53 73.1C82.17 73.1 81.88 72.81 81.88 72.45V71.58C81.88 71.22 82.13 70.9 82.48 70.82L84.24 70.38C84.3 70.37 84.36 70.36 84.41 70.36C84.81 70.36 85.13 70.68 85.13 71.08V72V72.02Z" fill="#B9EEE9"/>
<path d="M92.85 67.7C92.64 67.69 92.43 67.7 92.23 67.77L88.22 68.92C87.8 69.04 87.51 69.41 87.5 69.85V70.93C87.5 71.71 88.26 72.29 89.05 72.11L93.28 71.16C93.64 71.09 93.89 70.78 93.9 70.41V68.76C93.9 68.15 93.49 67.75 92.87 67.69L92.85 67.7ZM93.33 70.15C93.33 70.44 93.13 70.69 92.85 70.76L90.54 71.35C90.48 71.36 90.42 71.37 90.36 71.37C89.95 71.37 89.61 71.05 89.61 70.64V69.66C89.61 69.25 89.89 68.9 90.29 68.81L92.31 68.32C92.37 68.31 92.43 68.3 92.5 68.3C92.96 68.3 93.33 68.66 93.33 69.11V70.15Z" fill="#B9EEE9"/>
<path d="M101.74 65.13C101.49 65.11 101.25 65.13 101.02 65.2L96.4003 66.54C95.9103 66.67 95.5803 67.11 95.5703 67.61V68.85C95.5703 69.75 96.4403 70.42 97.3503 70.21L102.22 69.11C102.63 69.02 102.92 68.67 102.93 68.25V66.35C102.93 65.65 102.45 65.2 101.73 65.12L101.74 65.13ZM102.23 67.98C102.23 68.31 102 68.59 101.69 68.67L99.0803 69.34C99.0103 69.35 98.9503 69.37 98.8803 69.37C98.4203 69.37 98.0403 69.01 98.0303 68.55V67.44C98.0303 66.98 98.3503 66.58 98.8003 66.47L101.08 65.92C101.15 65.9 101.23 65.89 101.3 65.89C101.82 65.89 102.24 66.29 102.24 66.8V67.98H102.23Z" fill="#B9EEE9"/>
<path d="M51.1297 84.34C51.0297 84 51.0297 83.64 51.1297 83.29C51.1897 83.09 51.2997 82.9 51.4497 82.75C51.7797 82.44 52.4697 81.77 53.0297 81.31C53.0797 81.27 53.1497 81.27 53.1997 81.32C53.1997 81.32 53.1997 81.33 53.2097 81.34C53.4397 81.71 53.4797 82.17 53.3297 82.58C53.3297 82.58 52.0797 83.92 51.1897 84.35C51.1797 84.35 51.1497 84.35 51.1397 84.32L51.1297 84.34Z" fill="#B9EEE9"/>
<path d="M57.6997 79.45C57.6997 79.45 55.5897 81 54.4997 81.77C54.4597 81.81 54.3897 81.79 54.3597 81.75C54.3597 81.74 54.3497 81.72 54.3397 81.7C54.2797 81.07 54.3497 78.73 57.2097 77.28C57.3397 77.21 57.5097 77.27 57.5697 77.4C57.5797 77.44 57.5997 77.47 57.5997 77.51L57.6997 79.46V79.45Z" fill="#B9EEE9"/>
<path d="M63.2203 72.09L63.3503 75.23L59.1803 78.29C59.1803 78.29 59.0803 78.31 59.0503 78.27C59.0403 78.26 59.0303 78.23 59.0303 78.21V76.71C59.0303 76.02 59.3103 75.35 59.8003 74.87C60.6103 74.06 61.9603 72.82 63.2203 72.08V72.09Z" fill="#B9EEE9"/>
<path d="M73.6895 66.74C73.6895 66.74 97.9194 59.75 111.38 61.16C111.38 61.16 114.01 61.22 113.52 63.01C113.03 64.8 108.78 74.24 107.57 78.93C107.57 78.93 114.76 64.68 115.99 61.34C115.99 61.34 117.35 58.6 114.25 58.65C111.15 58.7 95.5195 57.78 73.6895 66.73V66.74Z" fill="#B9EEE9"/>
<path d="M203.07 103.03C203.07 47.78 158.28 3 103.04 3C47.8 3 3 47.79 3 103.03H203.07Z" stroke="#B9EEE9" stroke-width="5" stroke-miterlimit="10"/>
</g>
<defs>
<clipPath id="clip0_102_34">
<rect width="206" height="106" fill="white"/>
</clipPath>
</defs>
</svg>
