<svg width="388" height="200" viewBox="0 0 388 200" fill="none" xmlns="http://www.w3.org/2000/svg">
<g clip-path="url(#clip0_114_2)">
<mask id="mask0_114_2" style="mask-type:luminance" maskUnits="userSpaceOnUse" x="0" y="0" width="388" height="200">
<path d="M388 0H0V200H388V0Z" fill="white"/>
</mask>
<g mask="url(#mask0_114_2)">
<path d="M261.015 16.2075C260.563 16.0377 259.678 16.3585 257.549 24.3207C257.022 24.4905 256.005 20.4717 256.005 20.4717C256.005 20.4717 252.822 25.2075 253.311 37.6038C253.255 38.5472 251.692 32.566 244.12 26.566C242.538 26.0755 245.815 27.4339 245.589 31.2075C245.532 32.7358 240.089 21.6604 231.595 21.0566C230.446 21.3207 234.589 22.4717 234.1 24.8679C233.61 27.2641 232.197 20.6604 217.544 25.0377C217.544 25.0377 221.348 32.1887 227.018 35.4528C227.733 36.6038 222.064 35.566 221.687 35.283C221.311 35.0189 225.888 39.9811 234.1 42.0377C235.682 43.0755 228.43 42.0377 228.43 42.0377C228.43 42.0377 231.067 45.0943 237.471 46.9434C239.995 47.4151 233.139 46.566 232.951 47.3019C232.762 48.0377 235.098 49.6226 234.797 49.7358C234.495 49.849 223.966 48.7547 218.881 52.9056C218.881 52.9056 221.932 52.9811 221.857 54.0188C221.782 55.0566 215.943 54.0755 207.411 63.2641C207.411 63.2641 210.104 62.6604 210.537 63.2641C210.97 63.8679 204.849 66.9811 204.661 74.4339C204.661 76.3396 217.581 71.7924 217.581 71.7924C217.581 71.7924 216.301 74.0188 216.545 74.566C216.79 75.1132 223.081 72.9622 227.696 65.9245C227.696 65.9245 227.809 67.6226 226.773 69.9245C226.773 69.9245 229.579 70.6415 236.944 64.0566C236.944 64.0566 236.077 66.1887 235.362 67.2453C235.362 67.2453 237.094 67.6792 241.841 66.1509C241.841 66.1509 240.541 68.4905 239.355 72.6038L243.009 71.1887C243.009 71.1887 237.735 77.2453 238.036 86.8679C238.036 86.8679 240.127 85.3962 241.841 85.1321C241.841 85.1321 237.452 93.3396 241.219 104.566C241.219 104.566 243.009 104.377 243.611 103.358C243.611 103.358 241.483 110.302 250.392 120.623C250.392 120.623 253.33 115.717 252.916 104.189C252.916 104.189 253.65 103.774 255.779 107.302C256.683 108.604 258.886 93.3962 255.534 88.0755C254.875 87.1698 256.758 86.849 258.642 91.1887C259.376 93.0755 262.879 79.9811 259.301 72.4528C258.321 70.0755 261.09 73.3585 262.484 75.717C263.878 78.0943 262.559 71.3773 262.559 71.3773C262.559 71.3773 265.535 78.1321 266.552 78.6981C267.569 79.2641 269.283 71.3773 270.847 74.283C272.391 77.1887 265.987 76.9434 279.379 92.8113C280.603 93.8679 281.018 88.1509 282.392 89.3019C283.786 90.4528 280.264 93.1509 283.617 98.9622C284.841 99.8679 285.651 95.1132 286.969 96.5094C286.969 97.6604 286.555 101.245 291.132 105.679C292.846 108.698 292.846 109.604 292.846 109.604C292.846 109.604 298.308 95.4528 293.618 87.5283C292.319 85.1509 296.688 88.5849 296.688 88.5849C296.688 88.5849 294.598 76.3962 283.184 68.717C281.093 67.3207 288.212 70.5094 288.212 70.5094C288.212 70.5094 284.954 62.9434 273.182 57.1321C271.336 56.6038 281.79 57.7924 281.79 57.7924C281.79 57.7924 280.151 54.9245 280.151 54.4339C280.151 53.9434 289.738 60.1509 297.046 58C299.419 57.0943 295.2 57.0943 295.125 54.1509C295.125 52.9622 304.354 58.7358 308.837 56.3962C310.683 55.7358 305.861 54.849 305.333 51.849C304.806 48.8679 309.91 54.717 317.821 49.8113C319.912 48.4151 309.006 42.4905 309.006 42.4905" fill="#EDFF81"/>
<path d="M260.45 65.0566C260.45 65.0566 279.398 102.925 249.186 190.604H262.409C262.409 190.604 284.125 136.849 266.985 65.0566H260.45Z" fill="#EDFF81"/>
<path d="M99.9004 183.642C93.8544 181.774 79.182 180.208 62.852 184.264C46.5221 188.321 29.4388 183.642 29.4388 183.642C46.9177 191.453 67.3348 189.17 78.259 186.887C89.1833 184.604 99.9004 183.642 99.9004 183.642Z" fill="#EDFF81"/>
<path d="M168.139 178.698C175.956 178.642 186.24 181.302 188.18 181.811C188.425 181.868 188.689 181.736 188.764 181.472C188.802 181.34 188.764 181.189 188.707 181.057C186.108 177.283 185.11 177.453 170.004 175C154.54 172.491 153.448 177.264 152.751 180.038C152.054 182.811 151.112 182.509 137.382 180.717C123.651 178.925 117.473 181.189 114.667 182.434C111.86 183.679 105.136 186.34 98.902 187.283C92.6676 188.226 77.3171 191.264 77.3171 191.264C95.4552 194.208 107.962 189.887 116.23 187.302C124.499 184.717 139.02 184.962 150.416 187.925C161.811 190.887 158.213 178.774 168.139 178.698Z" fill="#EDFF81"/>
<path d="M166.501 190.113C160.888 194.075 136.101 193.453 136.101 193.453C142.769 196.585 158.27 197 163.054 196.698C167.838 196.396 168.78 196.906 173.244 191.585C177.726 186.264 189.988 185.528 189.988 185.528C165.126 182.302 172.095 186.151 166.482 190.132L166.501 190.113Z" fill="#EDFF81"/>
<path d="M217.393 189.491C205.772 192.925 207.109 183.566 199.538 183.283C199.349 183.283 199.217 183.415 199.198 183.604C199.198 183.679 199.198 183.736 199.255 183.811C199.971 184.774 201.496 186.868 202.495 188.34C203.851 190.321 205.188 194.491 214.775 193.34C224.362 192.189 222.384 190.547 245.175 190.547C245.175 190.547 230.333 185.66 217.393 189.491Z" fill="#EDFF81"/>
<path d="M210.217 182.151C215.83 186.396 218.881 186.925 225.436 185.906C231.99 184.887 236.831 184.66 236.831 184.66C232.536 180.906 219.898 183.302 215.528 177.547C212.778 173.925 209.275 174.038 209.275 174.038C199.311 174.038 196.486 180.453 196.015 181.698C195.978 181.83 195.978 181.981 196.015 182.113C196.109 182.321 196.336 182.434 196.543 182.415L197.127 182.34C203.436 181.415 206.036 179.057 210.179 182.189L210.217 182.151Z" fill="#EDFF81"/>
<path d="M107.134 133.377C107.115 133.208 106.945 133.094 106.776 133.132C106.7 133.132 106.625 133.189 106.569 133.264L105.212 135.226C105.081 135.434 104.986 135.679 104.986 135.925V136.981C104.986 136.981 106.908 134.943 107.096 134.226C107.171 133.943 107.171 133.66 107.115 133.396L107.134 133.377Z" fill="#EDFF81"/>
<path d="M108.979 132.245L110.768 130.358C111.032 130.075 111.164 129.736 111.164 129.358V127.792C111.164 127.792 111.107 127.679 111.051 127.679C111.032 127.679 110.975 127.679 110.975 127.717L110.015 128.755C109.28 129.566 108.866 130.623 108.866 131.717V132.208C108.866 132.208 108.885 132.283 108.941 132.283C108.941 132.283 108.96 132.264 108.979 132.245Z" fill="#EDFF81"/>
<path d="M114.629 125.83C115.439 125.038 115.891 123.962 115.891 122.811V121.585C115.891 121.585 115.816 121.453 115.759 121.453C115.722 121.453 115.684 121.453 115.665 121.509L113.593 124.34C113.141 124.962 113.028 125.755 113.311 126.472C113.33 126.547 113.386 126.642 113.443 126.717C113.876 126.472 114.271 126.189 114.629 125.83Z" fill="#EDFF81"/>
<path d="M205.979 104.377H205.791C205.621 104.377 205.452 104.377 205.263 104.396C205.866 104.377 206.488 104.34 207.09 104.321C206.714 104.321 206.356 104.358 205.979 104.377ZM203.794 104.491C203.474 104.491 203.154 104.528 202.834 104.547C202.702 104.547 202.551 104.547 202.419 104.566C202.947 104.547 203.493 104.491 204.001 104.472C203.964 104.472 203.907 104.472 203.869 104.472H203.794V104.491ZM205.263 104.415C204.83 104.434 204.435 104.453 204.001 104.491C204.227 104.491 204.472 104.472 204.717 104.453C204.887 104.453 205.094 104.453 205.263 104.434V104.415ZM208.183 104.283C208.315 104.283 208.465 104.283 208.597 104.283C208.522 104.283 208.428 104.283 208.352 104.283H208.183ZM203.775 104.491C203.455 104.491 203.135 104.528 202.815 104.547C202.683 104.547 202.532 104.547 202.4 104.566C202.928 104.547 203.474 104.491 203.983 104.472C203.945 104.472 203.888 104.472 203.851 104.472H203.775V104.491ZM205.96 104.377H205.772C205.602 104.377 205.433 104.377 205.244 104.396C205.847 104.377 206.469 104.34 207.071 104.321C206.695 104.321 206.337 104.358 205.96 104.377ZM204.698 104.434C204.868 104.434 205.075 104.434 205.244 104.415C204.811 104.434 204.416 104.453 203.983 104.491C204.227 104.491 204.453 104.472 204.698 104.453V104.434ZM150.02 65.566C150.001 66.5094 149.963 67.3207 149.944 67.9811C149.926 68.6415 149.907 69.1509 149.888 69.4905C149.888 69.7736 149.662 70.0188 149.398 70.0566C147.176 70.4339 144.897 71.2264 142.787 72.1698C142.787 71.4151 142.825 69 142.825 67.1321C142.825 66 142.825 65.0943 142.787 64.8302C142.712 64.283 142.279 63.7547 142.034 63.5094C141.996 63.4717 141.921 63.4717 141.902 63.5094C141.902 63.5094 141.883 63.5472 141.883 63.5849L141.789 66.717H137.608C137.419 66.717 137.269 66.8679 137.269 67.0566C137.269 67.2453 137.419 67.3962 137.608 67.3962H141.77L141.676 70.3962H138.7C138.549 70.3962 138.417 70.5283 138.417 70.6792C138.417 70.8302 138.549 70.9622 138.7 70.9622H141.657L141.601 72.7547C139.887 73.5849 138.267 74.5849 136.741 75.6792C135.423 76.6604 134.424 77.6038 133.972 78.3585C132.409 80.8868 130.789 81.6981 130.789 81.6981C126.269 83.849 121.899 87.0188 118.66 89.6604C117.021 90.9811 115.665 92.1887 114.742 93.0377C114.742 92.0566 114.685 90.566 114.629 88.9245C114.572 87.283 114.516 85.4905 114.478 83.9056H117.416C117.68 83.9056 117.887 83.6792 117.887 83.4339C117.887 83.1887 117.661 82.9622 117.416 82.9622H114.441C114.403 81.6226 114.365 80.5283 114.346 79.9434C114.346 79.6604 114.12 79.4528 113.857 79.4528C113.593 79.4528 113.367 79.6792 113.367 79.9434C113.367 80.7358 113.31 81.7924 113.254 82.9622H109.412C109.148 82.9622 108.941 83.1887 108.941 83.4339C108.941 83.6792 109.167 83.9056 109.412 83.9056H113.216C113.179 84.6792 113.141 85.4905 113.103 86.3019H110.429C110.278 86.3019 110.146 86.4339 110.146 86.5849C110.146 86.7358 110.278 86.8679 110.429 86.8679H113.066C112.877 90.6981 112.689 94.3962 112.689 94.3962H103.874V106.717C105.155 106.736 106.379 106.774 107.547 106.774C107.943 107.547 108.093 108.83 106.681 110.679C104.213 113.887 104.759 117.811 104.91 119.396C105.061 120.981 104.157 123.981 100.748 130.774C97.9412 136.321 98.3179 137.83 98.525 138.189C98.5439 138.226 98.6004 138.226 98.638 138.189C98.638 138.189 98.6569 138.189 98.6569 138.17C99.8246 135.396 103.723 127.604 106.247 122.83C108.809 118 110.316 114.34 113.913 114.208C116.983 114.075 115.269 115.491 115.269 115.491C106.172 124.906 99.7305 140.887 99.5233 141.377C99.6928 141.038 99.9 140.698 100.07 140.358C100.484 139.736 100.879 139.377 101.162 139.17C101.444 138.962 101.633 138.925 101.633 138.925C101.727 139.66 101.878 140.057 101.953 140.245C101.991 140.321 102.085 140.377 102.179 140.34C102.989 140.075 103.46 137.962 103.592 137.415C103.61 137.321 103.573 137.245 103.46 137.208C103.366 137.189 103.29 137.226 103.253 137.34C103.158 137.66 102.932 138.208 102.518 138.208C101.896 138.208 102.518 136.113 102.518 136.057C105.927 130.396 109.148 126.377 111.71 123.679C114.271 120.962 116.155 119.509 116.927 118.981C117.059 118.887 117.266 118.906 117.36 119.057C117.379 119.075 117.398 119.132 117.416 119.17C118.076 121.849 117.887 127.019 117.774 129.208C111.653 133.453 105.814 138.434 99.5233 144.415C81.3287 161.736 82.0256 174.83 82.0256 174.83C94.4755 139.208 139.661 120.792 139.661 120.792C178.63 105.585 219.239 108.472 223.552 108.736C227.865 109 225.322 112.774 225.322 112.774C222.46 118.66 215.472 129.887 207.128 145.792C200.084 159.208 195.733 170.906 194.527 174.226C194.358 174.736 194.622 175.264 195.13 175.453C195.507 175.585 195.921 175.453 196.185 175.151C200.894 169.075 206.092 161.038 213.004 151.981C220.124 142.66 233.987 124.868 233.987 124.868C235.154 123.113 236.303 120.792 236.51 119.17C237.678 109.377 234.872 105.755 226.66 104.849C221.932 104.321 216.809 104.17 211.648 104.264C210.782 103.981 210.631 102.792 210.612 102.094C210.612 101.774 210.386 101.491 210.047 101.415C205.734 100.528 200.536 98.3773 198.238 97.3019C197.428 96.9245 196.901 96.1321 196.825 95.2453L196.373 88.6415C195.205 78.8113 176.841 76.2453 171.548 75.717C170.569 75.6038 169.665 75.2453 168.892 74.6415C168.271 74.1321 167.725 73.5472 167.291 72.8868C166.764 72.1698 166.124 71.566 165.37 71.1132C164.353 70.5471 157.987 70.3396 154.992 70.2264C154.088 70.1887 153.354 69.4717 153.278 68.566C152.751 62.4717 151.696 50.8302 151.451 48.1887C151.451 47.8679 151.15 47.6226 150.83 47.6226C150.509 47.6226 150.265 47.9245 150.265 48.2453C150.265 49.1132 150.265 50 150.265 50.849C150.265 56.8679 150.133 62.0943 150.039 65.566M141.695 75.4339C143.409 74.1509 143.672 75.2075 143.691 75.4151C148.645 70.4717 154.521 72.0377 160.266 72.0377C166.011 72.0377 166.745 75.4528 166.745 75.4528C166.03 75.4528 165.314 75.4339 164.617 75.4339C152.468 75.4339 142.542 77.7736 137.024 79.4528C135.008 78.7736 139.792 76.8302 141.657 75.4339H141.695ZM116.023 94.5849C116.023 94.5849 116.023 94.5471 116.042 94.5283C117.435 92.7358 128.774 79.2075 155.84 77.7358C182.171 76.3207 193.378 82.1698 194.056 87.7358L193.604 88.0566C193.604 88.0566 178.687 82.0377 153.636 83.6415C128.021 85.2641 120.92 96.3207 116.136 94.8113C116.023 94.8113 115.985 94.6792 116.004 94.5849H116.023ZM188.5 87.7736V92.8113C188.5 93.0377 188.349 93.2264 188.179 93.1698L185.712 92.283C185.543 92.2075 185.392 91.9622 185.392 91.6981V86.8113C185.392 86.5283 185.561 86.3207 185.769 86.3773L188.142 87.1321C188.349 87.1887 188.5 87.4528 188.5 87.7736ZM174.694 85.0755V88.8113C174.694 89.3019 174.298 89.717 173.79 89.717H171.718C171.284 89.717 170.945 89.3773 170.945 88.9434V85.0755C170.945 84.6415 171.303 84.2641 171.737 84.2641H173.865C174.317 84.2641 174.675 84.6415 174.675 85.0755H174.694ZM159.72 84.7924V88.6038C159.72 89.1132 159.305 89.5283 158.797 89.5283H156.669C156.235 89.5283 155.896 89.1698 155.877 88.7547V84.8113C155.877 84.3585 156.254 83.9811 156.706 83.9811H158.891C159.362 83.9811 159.72 84.3396 159.72 84.7924ZM143.013 86.3396V90.6038C143.013 90.849 142.844 91.0566 142.618 91.1132L139.529 91.8868C139.359 91.9245 139.19 91.8113 139.152 91.6604C139.152 91.6415 139.152 91.6038 139.152 91.5849V87.2075C139.152 86.9245 139.34 86.6792 139.623 86.6415L142.58 85.9811C142.787 85.9434 142.994 86.0566 143.032 86.2641C143.032 86.3019 143.032 86.3396 143.032 86.3585L143.013 86.3396ZM141.393 116.849C141.356 116.434 141.262 116.019 141.149 115.623C140.998 115.094 140.527 114.755 140 114.736C135.065 114.547 129.64 114.981 127.361 115.208C126.74 115.264 126.25 115.811 126.288 116.453C126.307 117.226 126.363 118.113 126.42 118.641C126.42 118.906 126.664 119.113 126.928 119.113C132.428 118.906 135.084 118.887 136.327 118.943C134.763 119.623 133.219 120.321 131.731 121.057C130.243 121.774 128.793 122.528 127.361 123.321C125.986 123.774 124.046 123.925 122.747 123.962C121.956 123.981 121.278 123.377 121.24 122.585V122.528C121.24 120.509 121.372 118.151 121.485 116.774C121.541 116.019 121.654 115.264 121.805 114.547C121.862 114.302 122.05 114.113 122.314 114.075C124.743 113.774 128.529 113.075 134.519 111.566C140.866 109.981 146.969 109.151 146.969 109.151C159.55 108.17 165.238 108.83 167.367 109.226C157.29 111.547 148.833 114 141.412 116.849H141.393ZM185.373 106.302C182.924 106.623 180.645 106.925 178.611 107.245C173.337 107.283 166.369 106.679 158.571 106.528C147.76 106.302 135.084 108.943 130.676 110.226C126.269 111.509 118.189 112.415 114.911 112.641C111.634 112.868 111.446 111.679 111.22 109.491C111.144 108.585 111.22 107.679 111.446 106.811C131.976 106.34 132.692 101.415 153.015 101.736C180.909 102.189 185.43 105.415 185.43 105.415C185.957 105.641 185.731 105.981 185.392 106.283L185.373 106.302ZM135.762 102.34V98.6226C135.762 98.3962 135.912 98.1887 136.138 98.1321L138.53 97.5849C138.7 97.566 138.851 97.6604 138.907 97.8302V101.509C138.907 101.717 138.775 101.887 138.587 101.943L136.063 102.623C135.931 102.641 135.781 102.566 135.743 102.434C135.743 102.415 135.743 102.377 135.743 102.358L135.762 102.34ZM151.715 100.208V96.1321C151.715 95.6604 152.073 95.3019 152.544 95.283H154.729C155.199 95.283 155.557 95.6604 155.557 96.1321V100.057C155.557 100.585 155.162 101 154.634 101.019H152.506C152.054 101.019 151.715 100.66 151.715 100.208ZM169.213 101V96.2264C169.213 95.9056 169.476 95.6415 169.796 95.6415H169.872L172.283 95.9434C172.584 95.9811 172.81 96.2264 172.81 96.5471V101.453C172.81 101.83 172.49 102.151 172.132 102.151C172.094 102.151 172.057 102.151 172 102.151L169.834 101.774C169.476 101.698 169.231 101.396 169.231 101.038L169.213 101ZM188.406 105.264L186.032 104.415C185.863 104.34 185.731 104.132 185.731 103.868V99.3019C185.731 99.0377 185.9 98.849 186.089 98.9056L188.349 99.6038C188.557 99.6792 188.707 99.9245 188.707 100.226V104.943C188.707 105.17 188.557 105.321 188.406 105.264ZM209.633 104.321C209.294 104.321 208.955 104.34 208.616 104.34C208.541 104.34 208.446 104.34 208.371 104.34C208.315 104.34 208.258 104.34 208.202 104.34C207.994 104.34 207.768 104.34 207.58 104.358C207.41 104.358 207.26 104.358 207.109 104.358C206.732 104.358 206.375 104.377 205.998 104.415H205.809C205.64 104.415 205.47 104.415 205.282 104.434C204.849 104.453 204.453 104.472 204.02 104.509C203.982 104.509 203.926 104.509 203.888 104.509H203.813C203.493 104.509 203.173 104.547 202.852 104.566C202.721 104.566 202.57 104.566 202.438 104.585C202.212 104.585 202.005 104.604 201.798 104.623H201.779C201.779 104.623 201.703 104.623 201.647 104.623C201.534 104.623 201.421 104.623 201.308 104.641C201.195 104.66 201.082 104.641 200.988 104.66C200.95 104.66 200.894 104.66 200.856 104.66C200.705 104.66 200.555 104.679 200.404 104.679C200.121 104.679 199.876 104.717 199.594 104.736C195.902 102.17 183.697 94.8113 163.939 94.3019C163.939 94.3019 147.458 93.1321 135.008 97.9811C131.524 99.3396 127.832 100.057 124.084 100.075L109.713 100.17C109.204 100.17 108.79 99.7547 108.79 99.2453V96.566H121.391C125.063 96.566 128.699 95.9245 132.145 94.6981C137.702 92.6981 148.023 89.8302 161.283 89.8302C181.625 89.8302 186.71 93.2075 196.392 97.6038C196.392 97.6038 200.668 99.9811 207.919 102.075C207.919 102.075 210.556 102.906 209.633 104.208V104.321ZM232.762 117.792C232.386 121.717 227.394 128.736 218.372 139.962C210.876 149.283 207.542 153.264 205.941 154.547C205.828 154.623 205.678 154.623 205.602 154.528C205.527 154.453 205.527 154.358 205.583 154.245C207.561 150.566 216.018 134.962 220.67 127.641C225.096 120.66 229.278 114.075 230.521 112.132C230.672 111.906 230.973 111.83 231.199 111.962C231.256 112 231.312 112.038 231.331 112.094C232.461 113.755 232.988 115.774 232.781 117.774L232.762 117.792ZM205.998 104.472H205.809C205.64 104.472 205.47 104.472 205.282 104.491C205.885 104.472 206.506 104.434 207.109 104.415C206.732 104.415 206.375 104.453 205.998 104.472ZM205.282 104.491C204.849 104.509 204.453 104.528 204.02 104.566C204.246 104.566 204.491 104.547 204.736 104.528C204.905 104.528 205.113 104.528 205.282 104.509V104.491ZM203.813 104.566C203.493 104.566 203.173 104.604 202.852 104.623C202.721 104.623 202.57 104.623 202.438 104.641C202.965 104.623 203.512 104.566 204.02 104.547C203.982 104.547 203.926 104.547 203.888 104.547H203.813V104.566ZM208.22 104.358C208.352 104.358 208.503 104.358 208.635 104.358C208.559 104.358 208.465 104.358 208.39 104.358H208.22Z" fill="#EDFF81"/>
<path d="M125.365 145.755L125.233 133.038C125.233 132.66 124.838 132.264 124.48 132.396L123.463 132.811C122.295 133.283 121.485 134.509 121.353 135.755C120.92 139.774 122.012 144.623 122.012 144.623C102.386 157.585 99.1844 162.057 99.1844 162.057C111.747 153.774 117.624 151.17 119.47 150.453C120.072 150.208 120.75 150.321 121.24 150.755C121.786 151.264 121.749 151.887 121.579 152.377C121.428 152.792 121.146 153.132 120.75 153.34C101.106 163.66 93.176 170.226 93.176 170.226C107.679 161.83 119.94 159.396 119.884 159.849C119.827 160.302 116.87 162.547 116.87 162.547C125.177 160.038 130.639 163.283 130.639 163.283C124.8 148.849 125.346 145.755 125.346 145.755H125.365Z" fill="#EDFF81"/>
<path d="M159.419 131.755C159.08 131.736 158.722 131.755 158.402 131.868L151.791 133.849C151.094 134.057 150.604 134.717 150.604 135.434V137.283C150.604 138.434 151.527 139.358 152.676 139.358C152.846 139.358 152.996 139.359 153.147 139.302L160.116 137.679C160.7 137.547 161.133 137 161.133 136.396V133.566C161.133 132.547 160.455 131.849 159.419 131.755ZM160.342 135.887C160.342 136.358 160.022 136.792 159.551 136.906L155.765 137.887C155.671 137.906 155.558 137.925 155.445 137.925C154.767 137.925 154.221 137.377 154.221 136.698V135.057C154.221 134.377 154.691 133.774 155.351 133.623L158.666 132.792C158.779 132.774 158.892 132.755 158.986 132.755C159.739 132.755 160.342 133.359 160.342 134.113V135.849V135.887Z" fill="#EDFF81"/>
<path d="M174.883 127.736C174.487 127.717 174.092 127.736 173.715 127.868L166.162 130.038C165.371 130.264 164.825 130.962 164.806 131.792V133.83C164.806 135.302 166.237 136.396 167.725 136.057L175.693 134.264C176.371 134.132 176.841 133.547 176.86 132.849V129.736C176.86 128.585 176.088 127.83 174.92 127.717L174.883 127.736ZM175.787 132.358C175.787 132.906 175.41 133.377 174.883 133.509L170.532 134.623C170.419 134.642 170.306 134.66 170.193 134.66C169.42 134.66 168.78 134.057 168.78 133.283V131.434C168.78 130.66 169.307 130 170.061 129.83L173.866 128.906C173.979 128.887 174.092 128.868 174.223 128.868C175.09 128.868 175.787 129.547 175.787 130.396V132.358Z" fill="#EDFF81"/>
<path d="M191.627 122.887C191.156 122.849 190.704 122.887 190.271 123.019L181.57 125.547C180.647 125.792 180.025 126.623 180.006 127.566V129.906C180.006 131.604 181.645 132.868 183.359 132.472L192.531 130.396C193.303 130.226 193.849 129.566 193.868 128.774V125.189C193.868 123.868 192.964 123.019 191.608 122.868L191.627 122.887ZM192.55 128.264C192.55 128.887 192.117 129.415 191.533 129.566L186.617 130.83C186.485 130.849 186.372 130.887 186.241 130.887C185.374 130.887 184.658 130.208 184.64 129.34V127.245C184.64 126.377 185.242 125.623 186.09 125.415L190.384 124.377C190.516 124.34 190.666 124.321 190.798 124.321C191.778 124.321 192.569 125.075 192.569 126.038V128.264H192.55Z" fill="#EDFF81"/>
<path d="M96.3025 159.132C96.1142 158.491 96.1142 157.811 96.3025 157.151C96.4155 156.774 96.6227 156.415 96.9052 156.132C97.5268 155.547 98.8264 154.283 99.8812 153.415C99.9753 153.34 100.107 153.34 100.201 153.434C100.201 153.434 100.201 153.453 100.22 153.472C100.653 154.17 100.729 155.038 100.446 155.811C100.446 155.811 98.0918 158.34 96.4155 159.151C96.3967 159.151 96.3402 159.151 96.3214 159.094L96.3025 159.132Z" fill="#EDFF81"/>
<path d="M108.677 149.906C108.677 149.906 104.703 152.83 102.65 154.283C102.575 154.359 102.443 154.321 102.386 154.245C102.386 154.226 102.367 154.189 102.349 154.151C102.236 152.962 102.367 148.547 107.754 145.811C107.999 145.679 108.319 145.792 108.432 146.038C108.451 146.113 108.489 146.17 108.489 146.245L108.677 149.925V149.906Z" fill="#EDFF81"/>
<path d="M119.075 136.019L119.32 141.943L111.466 147.717C111.466 147.717 111.278 147.755 111.221 147.679C111.202 147.66 111.183 147.604 111.183 147.566V144.736C111.183 143.434 111.711 142.17 112.634 141.264C114.159 139.736 116.702 137.396 119.075 136V136.019Z" fill="#EDFF81"/>
<path d="M138.794 125.925C138.794 125.925 184.431 112.736 209.784 115.396C209.784 115.396 214.737 115.509 213.814 118.887C212.891 122.264 204.887 140.075 202.608 148.925C202.608 148.925 216.15 122.038 218.467 115.736C218.467 115.736 221.028 110.566 215.189 110.66C209.35 110.755 179.911 109.019 138.794 125.906V125.925Z" fill="#EDFF81"/>
<path d="M382.481 194.396C382.481 90.1509 298.12 5.66037 194.075 5.66037C90.0311 5.66037 5.65051 90.1698 5.65051 194.396H382.481Z" stroke="#EDFF81" stroke-width="5" stroke-miterlimit="10"/>
</g>
</g>
<defs>
<clipPath id="clip0_114_2">
<rect width="388" height="200" fill="white"/>
</clipPath>
</defs>
</svg>
