<svg width="355" height="48" viewBox="0 0 355 48" fill="none" xmlns="http://www.w3.org/2000/svg">
<mask id="mask0_121_28" style="mask-type:luminance" maskUnits="userSpaceOnUse" x="0" y="0" width="355" height="48">
<path d="M354.707 0H0V47.2966H354.707V0Z" fill="white"/>
</mask>
<g mask="url(#mask0_121_28)">
<path d="M45.1957 2.5C68.8197 2.5 88.073 21.2979 88.8618 44.7966H1.52515C2.31431 21.3022 21.5718 2.5 45.1957 2.5Z" stroke="#EDFF81" stroke-width="3" stroke-miterlimit="10"/>
<path d="M68.1115 8.98049C67.9477 9.16128 68.3814 8.35874 68.6293 8.36756C68.8771 8.37638 66.0581 7.80313 63.8896 8.88348C63.6417 8.84379 64.31 8.23527 64.2525 8.14708C64.1949 8.05889 62.6327 8.69386 61.3936 9.61105C61.1325 9.84035 61.7786 8.70268 61.5839 8.5704C61.3936 8.43811 61.1723 9.20096 60.6634 9.15246C60.4908 9.22742 61.5441 7.00059 62.1017 6.48468C62.3407 6.21569 61.19 6.40971 61.19 6.40971C61.19 6.40971 61.8804 5.41756 62.8319 4.64148" fill="#EDFF81"/>
<path d="M59.5622 3.64816C59.4586 3.60914 59.2557 3.68285 58.7678 5.51248C58.6469 5.5515 58.4138 4.62801 58.4138 4.62801C58.4138 4.62801 57.6841 5.71626 57.7964 8.56476C57.7834 8.78154 57.4251 7.40715 55.6895 6.02842C55.3268 5.91569 56.0781 6.22786 56.0262 7.09498C56.0133 7.44617 54.7656 4.90116 52.8184 4.76242C52.5551 4.82312 53.5049 5.08759 53.3926 5.63821C53.2804 6.18884 52.9566 4.67137 49.5976 5.67723C49.5976 5.67723 50.4697 7.32043 51.7693 8.0705C51.9333 8.33497 50.6338 8.09651 50.5475 8.03148C50.4611 7.97078 51.5102 9.11105 53.3926 9.58363C53.7553 9.82209 52.0931 9.58363 52.0931 9.58363C52.0931 9.58363 52.6975 10.286 54.1654 10.7109C54.744 10.8193 53.1724 10.6242 53.1293 10.7933C53.0861 10.9624 53.6215 11.3265 53.5524 11.3526C53.4833 11.3786 51.0699 11.1271 49.9042 12.0809C49.9042 12.0809 50.6036 12.0983 50.5863 12.3367C50.569 12.5752 49.2307 12.3498 47.2749 14.4612C47.2749 14.4612 47.8923 14.3225 47.9916 14.4612C48.0909 14.5999 46.6877 15.3153 46.6445 17.0279C46.6445 17.4658 49.6063 16.4209 49.6063 16.4209C49.6063 16.4209 49.3127 16.9325 49.3688 17.0582C49.4249 17.184 50.8669 16.6897 51.9247 15.0725C51.9247 15.0725 51.9506 15.4627 51.7132 15.9917C51.7132 15.9917 52.3565 16.1564 54.0446 14.6433C54.0446 14.6433 53.846 15.1332 53.6819 15.376C53.6819 15.376 54.0791 15.4757 55.1671 15.1245C55.1671 15.1245 54.8692 15.6622 54.5972 16.6073L55.4348 16.2822C55.4348 16.2822 54.2259 17.6739 54.295 19.8851C54.295 19.8851 54.7742 19.5469 55.1671 19.4862C55.1671 19.4862 54.1611 21.3722 55.0246 23.9519C55.0246 23.9519 55.4348 23.9085 55.5729 23.6744C55.5729 23.6744 55.0851 25.2699 57.1272 27.6415C57.1272 27.6415 57.8007 26.5142 57.7057 23.8652C57.7057 23.8652 57.8741 23.7698 58.362 24.5805C58.5692 24.8797 59.0743 21.3852 58.3058 20.1625C58.1547 19.9544 58.5865 19.8807 59.0182 20.8779C59.1866 21.3115 59.9896 18.3026 59.1693 16.5726C58.9448 16.0264 59.5795 16.7808 59.899 17.3227C60.2184 17.869 59.9162 16.3255 59.9162 16.3255C59.9162 16.3255 60.5984 17.8777 60.8315 18.0077C61.0647 18.1378 61.4575 16.3255 61.8159 16.9932C62.1699 17.6609 60.702 17.6045 63.7717 21.2508C64.0523 21.4936 64.1473 20.1799 64.4624 20.4444C64.7819 20.7088 63.9746 21.3288 64.7431 22.6642C65.0237 22.8723 65.2094 21.7797 65.5116 22.1006C65.5116 22.365 65.4166 23.1888 66.4657 24.2077C66.8586 24.9014 66.8586 25.1095 66.8586 25.1095C66.8586 25.1095 68.1107 21.8578 67.0356 20.0368C66.7377 19.4905 67.7394 20.2796 67.7394 20.2796C67.7394 20.2796 67.2601 17.4788 64.6438 15.7142C64.1646 15.3934 65.7965 16.1261 65.7965 16.1261C65.7965 16.1261 65.0496 14.3875 62.3512 13.0521C61.9281 12.9307 64.3243 13.2039 64.3243 13.2039C64.3243 13.2039 63.9487 12.5449 63.9487 12.4321C63.9487 12.3194 66.1462 13.7458 67.8214 13.2516C68.3654 13.0435 67.3983 13.0435 67.381 12.3671C67.381 12.094 69.4965 13.4206 70.5241 12.883C70.9472 12.7313 69.8419 12.5275 69.721 11.8381C69.6002 11.1531 70.7702 12.4972 72.5835 11.3699C73.0627 11.0491 70.5629 9.68768 70.5629 9.68768" fill="#EDFF81"/>
<path d="M59.4156 14.6415C59.4156 14.6415 64.0773 23.3885 56.6445 43.6415H59.8975C59.8975 43.6415 65.2404 31.2247 61.0235 14.6415H59.4156Z" fill="#EDFF81"/>
<path d="M22.6445 41.9036C21.2716 41.6491 17.9399 41.4358 14.2318 41.9884C10.5237 42.541 6.64453 41.9036 6.64453 41.9036C10.6135 42.9677 15.2497 42.6567 17.7303 42.3457C20.211 42.0347 22.6445 41.9036 22.6445 41.9036Z" fill="#EDFF81"/>
<path d="M38.0153 40.6224C39.7684 40.6098 42.075 41.2024 42.5102 41.3159C42.5651 41.3285 42.6242 41.299 42.6411 41.2402C42.6496 41.2108 42.6411 41.1772 42.6285 41.1478C42.0455 40.3073 41.8216 40.3451 38.4335 39.7988C34.9651 39.2398 34.7201 40.3031 34.5638 40.9208C34.4075 41.5386 34.1963 41.4713 31.1166 41.0721C28.0369 40.6729 26.6513 41.1772 26.0218 41.4545C25.3923 41.7319 23.8842 42.3245 22.4859 42.5346C21.0875 42.7447 17.6445 43.4213 17.6445 43.4213C21.7128 44.0769 24.5179 43.1145 26.3724 42.5388C28.227 41.963 31.4841 42.0177 34.04 42.6775C36.5958 43.3373 35.7889 40.6393 38.0153 40.6224Z" fill="#EDFF81"/>
<path d="M37.9783 43.0357C36.6243 43.9901 30.6445 43.8401 30.6445 43.8401C32.2531 44.5945 35.9927 44.6944 37.1468 44.6217C38.3009 44.549 38.5281 44.6717 39.605 43.3902C40.6865 42.1087 43.6445 41.9314 43.6445 41.9314C37.6466 41.1543 39.3279 42.0814 37.9738 43.0403L37.9783 43.0357Z" fill="#EDFF81"/>
<path d="M49.6019 42.8522C47.0743 43.522 47.3651 41.6967 45.7183 41.6415C45.6773 41.6415 45.6486 41.6672 45.6445 41.704C45.6445 41.7188 45.6445 41.7298 45.6568 41.7445C45.8125 41.9322 46.1443 42.3407 46.3615 42.6277C46.6564 43.0141 46.9473 43.8274 49.0325 43.603C51.1177 43.3785 50.6875 43.0583 55.6445 43.0583C55.6445 43.0583 52.4163 42.1052 49.6019 42.8522Z" fill="#EDFF81"/>
<path d="M47.7801 41.6184C49.0169 42.6527 49.6893 42.7814 51.1336 42.5332C52.5779 42.2849 53.6445 42.2298 53.6445 42.2298C52.6983 41.3149 49.9134 41.8988 48.9505 40.4966C48.3446 39.614 47.5726 39.6416 47.5726 39.6416C45.3771 39.6416 44.7545 41.2046 44.6508 41.508C44.6425 41.5402 44.6425 41.577 44.6508 41.6092C44.6715 41.6597 44.7213 41.6873 44.767 41.6827L44.8956 41.6643C46.286 41.4391 46.8587 40.8644 47.7718 41.6276L47.7801 41.6184Z" fill="#EDFF81"/>
<path d="M24.6346 30.707C24.626 30.6629 24.5478 30.6336 24.4696 30.6434C24.4349 30.6434 24.4001 30.658 24.3741 30.6776L23.7488 31.1865C23.688 31.2403 23.6445 31.3039 23.6445 31.3675V31.6415C23.6445 31.6415 24.5304 31.1131 24.6173 30.9271C24.652 30.8538 24.652 30.7804 24.626 30.7119L24.6346 30.707Z" fill="#EDFF81"/>
<path d="M24.6937 29.6333L25.4724 29.2234C25.5872 29.162 25.6445 29.0882 25.6445 29.0062V28.6661C25.6445 28.6661 25.6199 28.6415 25.5953 28.6415C25.5872 28.6415 25.5626 28.6415 25.5626 28.6497L25.1445 28.8751C24.8249 29.0513 24.6445 29.2808 24.6445 29.5185V29.6251C24.6445 29.6251 24.6527 29.6415 24.6773 29.6415C24.6773 29.6415 24.6855 29.6374 24.6937 29.6333Z" fill="#EDFF81"/>
<path d="M26.183 28.473C26.4792 28.3225 26.6445 28.1182 26.6445 27.8995V27.6666C26.6445 27.6666 26.617 27.6415 26.5963 27.6415C26.5825 27.6415 26.5688 27.6415 26.5619 27.6522L25.8042 28.1899C25.6389 28.3081 25.5975 28.4587 25.7009 28.5949C25.7077 28.6092 25.7284 28.6271 25.7491 28.6415C25.9075 28.5949 26.0522 28.5411 26.183 28.473Z" fill="#EDFF81"/>
<path d="M46.6816 23.5119H46.639C46.6006 23.5119 46.5623 23.5119 46.5197 23.5162C46.656 23.5119 46.7966 23.5033 46.9329 23.4991C46.8477 23.4991 46.7668 23.5076 46.6816 23.5119ZM46.1874 23.5376C46.115 23.5376 46.0425 23.5461 45.9701 23.5504C45.9403 23.5504 45.9062 23.5504 45.8764 23.5547C45.9957 23.5504 46.1192 23.5376 46.2342 23.5333C46.2257 23.5333 46.2129 23.5333 46.2044 23.5333H46.1874V23.5376ZM46.5197 23.5205C46.4217 23.5247 46.3322 23.529 46.2342 23.5376C46.2854 23.5376 46.3407 23.5333 46.3961 23.529C46.4345 23.529 46.4813 23.529 46.5197 23.5247V23.5205ZM47.18 23.4905C47.2098 23.4905 47.2439 23.4905 47.2737 23.4905C47.2567 23.4905 47.2354 23.4905 47.2183 23.4905H47.18ZM46.1831 23.5376C46.1107 23.5376 46.0383 23.5461 45.9659 23.5504C45.936 23.5504 45.9019 23.5504 45.8721 23.5547C45.9914 23.5504 46.115 23.5376 46.23 23.5333C46.2215 23.5333 46.2087 23.5333 46.2002 23.5333H46.1831V23.5376ZM46.6773 23.5119H46.6347C46.5964 23.5119 46.558 23.5119 46.5154 23.5162C46.6517 23.5119 46.7923 23.5033 46.9287 23.4991C46.8435 23.4991 46.7625 23.5076 46.6773 23.5119ZM46.3919 23.5247C46.4302 23.5247 46.4771 23.5247 46.5154 23.5205C46.4174 23.5247 46.328 23.529 46.23 23.5376C46.2854 23.5376 46.3365 23.5333 46.3919 23.529V23.5247ZM34.0246 14.7106C34.0203 14.9245 34.0118 15.1085 34.0075 15.2582C34.0033 15.408 33.999 15.5235 33.9948 15.6005C33.9948 15.6647 33.9436 15.7203 33.884 15.7289C33.3813 15.8145 32.8658 15.9942 32.3887 16.2081C32.3887 16.037 32.3972 15.4893 32.3972 15.0657C32.3972 14.809 32.3972 14.6036 32.3887 14.5437C32.3716 14.4196 32.2736 14.2998 32.2183 14.2442C32.2097 14.2356 32.1927 14.2356 32.1884 14.2442C32.1884 14.2442 32.1842 14.2527 32.1842 14.2613L32.1629 14.9716H31.2171C31.1745 14.9716 31.1404 15.0058 31.1404 15.0486C31.1404 15.0914 31.1745 15.1256 31.2171 15.1256H32.1586L32.1373 15.8059H31.4642C31.4301 15.8059 31.4003 15.8359 31.4003 15.8701C31.4003 15.9043 31.4301 15.9343 31.4642 15.9343H32.1331L32.1203 16.3408C31.7326 16.529 31.3662 16.7558 31.0211 17.004C30.7229 17.2264 30.4971 17.4404 30.3949 17.6115C30.0413 18.1849 29.6749 18.3689 29.6749 18.3689C28.6525 18.8566 27.6641 19.5755 26.9314 20.1745C26.5607 20.474 26.254 20.7478 26.0453 20.9404C26.0453 20.7179 26.0325 20.3799 26.0197 20.0076C26.0069 19.6354 25.9941 19.2289 25.9856 18.8695H26.6502C26.7098 18.8695 26.7567 18.8181 26.7567 18.7625C26.7567 18.7069 26.7056 18.6555 26.6502 18.6555H25.9771C25.9686 18.3518 25.9601 18.1036 25.9558 17.9709C25.9558 17.9068 25.9047 17.8597 25.845 17.8597C25.7854 17.8597 25.7343 17.911 25.7343 17.9709C25.7343 18.1507 25.7215 18.3903 25.7087 18.6555H24.8396C24.78 18.6555 24.7331 18.7069 24.7331 18.7625C24.7331 18.8181 24.7842 18.8695 24.8396 18.8695H25.7002C25.6917 19.0449 25.6831 19.2289 25.6746 19.4129H25.0697C25.0356 19.4129 25.0058 19.4428 25.0058 19.4771C25.0058 19.5113 25.0356 19.5412 25.0697 19.5412H25.6661C25.6235 20.4098 25.5809 21.2485 25.5809 21.2485H23.5871V24.0425C23.8768 24.0467 24.1537 24.0553 24.4179 24.0553C24.5073 24.2307 24.5414 24.5217 24.2219 24.941C23.6638 25.6684 23.7874 26.5584 23.8214 26.9178C23.8555 27.2772 23.651 27.9575 22.8799 29.4979C22.2452 30.7558 22.3304 31.0981 22.3772 31.1794C22.3815 31.188 22.3943 31.188 22.4028 31.1794C22.4028 31.1794 22.4071 31.1794 22.4071 31.1751C22.6712 30.5461 23.5531 28.779 24.1239 27.6965C24.7033 26.6012 25.0441 25.7711 25.8578 25.7411C26.5522 25.7112 26.1645 26.0321 26.1645 26.0321C24.1069 28.1672 22.6499 31.7913 22.603 31.9025C22.6414 31.8255 22.6882 31.7485 22.7266 31.6714C22.8203 31.5303 22.9098 31.449 22.9737 31.4019C23.0376 31.3548 23.0802 31.3463 23.0802 31.3463C23.1015 31.5131 23.1356 31.603 23.1526 31.6458C23.1611 31.6629 23.1824 31.6757 23.2037 31.6672C23.3869 31.6073 23.4934 31.1281 23.5232 31.004C23.5275 30.9826 23.519 30.9655 23.4934 30.9569C23.4721 30.9526 23.4551 30.9612 23.4466 30.9869C23.4252 31.0596 23.3741 31.1837 23.2804 31.1837C23.1398 31.1837 23.2804 30.7087 23.2804 30.6959C24.0515 29.4123 24.78 28.5009 25.3594 27.8891C25.9388 27.2729 26.3648 26.9434 26.5394 26.8236C26.5693 26.8023 26.6161 26.8065 26.6374 26.8408C26.6417 26.845 26.6459 26.8579 26.6502 26.8664C26.7993 27.474 26.7567 28.6464 26.7311 29.1427C25.3466 30.1054 24.0259 31.235 22.603 32.5914C18.4877 36.5193 18.6453 39.4887 18.6453 39.4887C21.4613 31.4104 31.6815 27.2344 31.6815 27.2344C40.4958 23.7857 49.6807 24.4404 50.6563 24.5003C51.6319 24.5602 51.0568 25.4159 51.0568 25.4159C50.4092 26.7509 48.8287 29.2968 46.9414 32.9037C45.3481 35.9459 44.364 38.5987 44.0914 39.3518C44.053 39.4673 44.1127 39.5871 44.2277 39.6299C44.3129 39.6598 44.4066 39.6299 44.4663 39.5614C45.5313 38.1837 46.7071 36.3609 48.2706 34.3071C49.881 32.1935 53.0164 28.1586 53.0164 28.1586C53.2806 27.7607 53.5404 27.2344 53.5873 26.8664C53.8514 24.6458 53.2167 23.8243 51.3592 23.6189C50.2899 23.4991 49.1312 23.4648 47.9639 23.4862C47.7679 23.4221 47.7338 23.1525 47.7296 22.9942C47.7296 22.9214 47.6784 22.8573 47.6018 22.8401C46.6262 22.639 45.4504 22.1513 44.9306 21.9074C44.7474 21.8218 44.6282 21.6421 44.6111 21.441L44.5089 19.9434C44.2447 17.7142 40.0911 17.1323 38.894 17.0125C38.6724 16.9868 38.4679 16.9055 38.2933 16.7686C38.1527 16.6531 38.0291 16.5205 37.9312 16.3707C37.8119 16.2081 37.667 16.0712 37.4966 15.9685C37.2666 15.8401 35.8266 15.7931 35.1493 15.7674C34.9448 15.7588 34.7786 15.5963 34.7616 15.3909C34.6423 14.0088 34.4037 11.3689 34.3483 10.7698C34.3483 10.6971 34.2802 10.6415 34.2078 10.6415C34.1353 10.6415 34.08 10.7099 34.08 10.7827C34.08 10.9795 34.08 11.1806 34.08 11.3731C34.08 12.7381 34.0501 13.9233 34.0288 14.7106M32.1416 16.9483C32.5293 16.6574 32.5889 16.897 32.5932 16.9441C33.7136 15.823 35.0428 16.1782 36.3421 16.1782C37.6415 16.1782 37.8076 16.9526 37.8076 16.9526C37.6457 16.9526 37.4838 16.9483 37.3262 16.9483C34.5784 16.9483 32.3333 17.4789 31.085 17.8597C30.6292 17.7057 31.7113 17.265 32.1331 16.9483H32.1416ZM26.335 21.2912C26.335 21.2912 26.335 21.2827 26.3392 21.2784C26.6545 20.8719 29.2191 17.8041 35.341 17.4703C41.2967 17.1494 43.8315 18.4758 43.9849 19.7381L43.8826 19.8108C43.8826 19.8108 40.5086 18.4459 34.8425 18.8096C29.0487 19.1776 27.4426 21.6849 26.3605 21.3426C26.335 21.3426 26.3264 21.3126 26.3307 21.2912H26.335ZM42.7281 19.7466V20.889C42.7281 20.9404 42.694 20.9832 42.6557 20.9703L42.0976 20.7692C42.0593 20.7521 42.0252 20.6965 42.0252 20.6366V19.5284C42.0252 19.4642 42.0635 19.4172 42.1104 19.43L42.6472 19.6011C42.694 19.614 42.7281 19.6739 42.7281 19.7466ZM39.6054 19.1348V19.982C39.6054 20.0932 39.5159 20.1873 39.4009 20.1873H38.9323C38.8343 20.1873 38.7576 20.1103 38.7576 20.0119V19.1348C38.7576 19.0364 38.8386 18.9508 38.9366 18.9508H39.418C39.5202 18.9508 39.6011 19.0364 39.6011 19.1348H39.6054ZM36.2186 19.0706V19.9349C36.2186 20.0504 36.1248 20.1445 36.0098 20.1445H35.5284C35.4304 20.1445 35.3537 20.0632 35.3495 19.9691V19.0749C35.3495 18.9722 35.4347 18.8866 35.5369 18.8866H36.0311C36.1376 18.8866 36.2186 18.9679 36.2186 19.0706ZM32.4398 19.4214V20.3884C32.4398 20.4441 32.4014 20.4911 32.3503 20.504L31.6517 20.6794C31.6133 20.6879 31.575 20.6623 31.5664 20.628C31.5664 20.6238 31.5664 20.6152 31.5664 20.6109V19.6183C31.5664 19.5541 31.6091 19.4985 31.673 19.4899L32.3418 19.3401C32.3887 19.3316 32.4355 19.3573 32.444 19.4043C32.444 19.4129 32.444 19.4214 32.444 19.4257L32.4398 19.4214ZM32.0734 26.3401C32.0649 26.246 32.0436 26.1519 32.018 26.062C31.9839 25.9422 31.8774 25.8652 31.7582 25.8609C30.642 25.8181 29.4151 25.9166 28.8996 25.9679C28.759 25.9807 28.6482 26.1048 28.6567 26.2503C28.661 26.4257 28.6738 26.6268 28.6866 26.7466C28.6866 26.8065 28.742 26.8536 28.8016 26.8536C30.0456 26.8065 30.6463 26.8023 30.9274 26.8151C30.5738 26.9691 30.2245 27.1274 29.8879 27.2943C29.5514 27.4569 29.2234 27.628 28.8996 27.8078C28.5886 27.9104 28.1498 27.9447 27.8558 27.9532C27.6769 27.9575 27.5235 27.8206 27.515 27.6409V27.628C27.515 27.1702 27.5448 26.6354 27.5704 26.323C27.5832 26.1519 27.6087 25.9807 27.6428 25.8181C27.6556 25.7625 27.6982 25.7197 27.7579 25.7112C28.3074 25.6427 29.1637 25.4844 30.5184 25.1421C31.9541 24.7827 33.3344 24.5944 33.3344 24.5944C36.1802 24.3719 37.4668 24.5217 37.9482 24.6115C35.669 25.1378 33.7562 25.6941 32.0777 26.3401H32.0734ZM42.0209 23.9483C41.4671 24.0211 40.9516 24.0895 40.4915 24.1623C39.2987 24.1708 37.7224 24.0339 35.9587 23.9997C33.5134 23.9483 30.6463 24.5474 29.6494 24.8383C28.6525 25.1293 26.8249 25.3346 26.0836 25.386C25.3423 25.4373 25.2997 25.1678 25.2486 24.6714C25.2316 24.4661 25.2486 24.2607 25.2997 24.0639C29.9433 23.9569 30.1052 22.8401 34.7019 22.9129C41.0113 23.0156 42.0337 23.7472 42.0337 23.7472C42.153 23.7986 42.1019 23.8756 42.0252 23.9441L42.0209 23.9483ZM30.7996 23.0498V22.2069C30.7996 22.1555 30.8337 22.1085 30.8848 22.0956L31.4259 21.9716C31.4642 21.9673 31.4983 21.9887 31.5111 22.0272V22.8615C31.5111 22.9086 31.4812 22.9471 31.4386 22.9599L30.8678 23.114C30.838 23.1183 30.8039 23.1011 30.7954 23.0712C30.7954 23.0669 30.7954 23.0584 30.7954 23.0541L30.7996 23.0498ZM34.408 22.5663V21.6421C34.408 21.5351 34.4889 21.4538 34.5954 21.4496H35.0896C35.1961 21.4496 35.2771 21.5351 35.2771 21.6421V22.5321C35.2771 22.6519 35.1876 22.746 35.0683 22.7503H34.5869C34.4847 22.7503 34.408 22.669 34.408 22.5663ZM38.3657 22.746V21.6635C38.3657 21.5908 38.4253 21.5309 38.4978 21.5309H38.5148L39.0601 21.5993C39.1283 21.6079 39.1794 21.6635 39.1794 21.7362V22.8487C39.1794 22.9343 39.107 23.007 39.026 23.007C39.0175 23.007 39.009 23.007 38.9962 23.007L38.5063 22.9214C38.4253 22.9043 38.37 22.8359 38.37 22.7546L38.3657 22.746ZM42.7068 23.713L42.17 23.5205C42.1317 23.5033 42.1019 23.4563 42.1019 23.3964V22.3609C42.1019 22.301 42.1402 22.2582 42.1828 22.2711L42.694 22.4294C42.7409 22.4465 42.775 22.5021 42.775 22.5706V23.6403C42.775 23.6916 42.7409 23.7258 42.7068 23.713ZM47.508 23.4991C47.4314 23.4991 47.3547 23.5033 47.278 23.5033C47.2609 23.5033 47.2396 23.5033 47.2226 23.5033C47.2098 23.5033 47.197 23.5033 47.1843 23.5033C47.1374 23.5033 47.0863 23.5033 47.0437 23.5076C47.0053 23.5076 46.9713 23.5076 46.9372 23.5076C46.852 23.5076 46.771 23.5119 46.6858 23.5205H46.6432C46.6049 23.5205 46.5665 23.5205 46.5239 23.5247C46.426 23.529 46.3365 23.5333 46.2385 23.5419C46.23 23.5419 46.2172 23.5419 46.2087 23.5419H46.1916C46.1192 23.5419 46.0468 23.5504 45.9744 23.5547C45.9446 23.5547 45.9105 23.5547 45.8807 23.559C45.8295 23.559 45.7827 23.5633 45.7358 23.5675H45.7315C45.7315 23.5675 45.7145 23.5675 45.7017 23.5675C45.6762 23.5675 45.6506 23.5675 45.625 23.5718C45.5995 23.5761 45.5739 23.5718 45.5526 23.5761C45.5441 23.5761 45.5313 23.5761 45.5228 23.5761C45.4887 23.5761 45.4546 23.5804 45.4206 23.5804C45.3566 23.5804 45.3013 23.5889 45.2374 23.5932C44.4024 23.0113 41.6418 21.3426 37.1728 21.2271C37.1728 21.2271 33.4452 20.9618 30.6292 22.0614C29.8411 22.3695 29.0061 22.5321 28.1583 22.5364L24.9078 22.5577C24.7928 22.5577 24.699 22.4636 24.699 22.3481V21.7405H27.5491C28.3798 21.7405 29.2021 21.595 29.9817 21.3169C31.2384 20.8634 33.573 20.213 36.5722 20.213C41.1732 20.213 42.3234 20.9789 44.5131 21.9758C44.5131 21.9758 45.4802 22.515 47.1204 22.9899C47.1204 22.9899 47.7168 23.1782 47.508 23.4734V23.4991ZM52.7395 26.5541C52.6543 27.4441 51.5254 29.0358 49.4848 31.5816C47.7892 33.6953 47.0352 34.5981 46.673 34.8891C46.6475 34.9062 46.6134 34.9062 46.5964 34.8848C46.5793 34.8677 46.5793 34.8463 46.5921 34.8206C47.0394 33.9862 48.9522 30.4477 50.0045 28.7876C51.0056 27.2045 51.9514 25.7112 52.2326 25.2705C52.2667 25.2191 52.3348 25.202 52.3859 25.232C52.3987 25.2405 52.4115 25.2491 52.4158 25.2619C52.6714 25.6384 52.7907 26.0963 52.7438 26.5498L52.7395 26.5541ZM46.6858 23.5333H46.6432C46.6049 23.5333 46.5665 23.5333 46.5239 23.5376C46.6603 23.5333 46.8008 23.5247 46.9372 23.5205C46.852 23.5205 46.771 23.529 46.6858 23.5333ZM46.5239 23.5376C46.426 23.5419 46.3365 23.5461 46.2385 23.5547C46.2896 23.5547 46.345 23.5504 46.4004 23.5461C46.4387 23.5461 46.4856 23.5461 46.5239 23.5419V23.5376ZM46.1916 23.5547C46.1192 23.5547 46.0468 23.5633 45.9744 23.5675C45.9446 23.5675 45.9105 23.5675 45.8807 23.5718C45.9999 23.5675 46.1235 23.5547 46.2385 23.5504C46.23 23.5504 46.2172 23.5504 46.2087 23.5504H46.1916V23.5547ZM47.1885 23.5076C47.2183 23.5076 47.2524 23.5076 47.2822 23.5076C47.2652 23.5076 47.2439 23.5076 47.2269 23.5076H47.1885Z" fill="#EDFF81"/>
<path d="M28.5183 33.47L28.4902 30.7825C28.4902 30.7028 28.4057 30.6191 28.3293 30.647L28.1121 30.7347C27.8627 30.8344 27.6898 31.0935 27.6616 31.3567C27.5691 32.206 27.8024 33.2307 27.8024 33.2307C23.6113 35.97 22.9276 36.915 22.9276 36.915C25.6103 35.1646 26.8652 34.6143 27.2594 34.4628C27.3881 34.411 27.5329 34.4349 27.6375 34.5266C27.7541 34.6343 27.7461 34.7658 27.7099 34.8695C27.6777 34.9572 27.6174 35.029 27.5329 35.0729C23.3378 37.2539 21.6445 38.6415 21.6445 38.6415C24.7416 36.8671 27.36 36.3528 27.3479 36.4485C27.3358 36.5442 26.7044 37.0187 26.7044 37.0187C28.4781 36.4883 29.6445 37.1742 29.6445 37.1742C28.3977 34.1239 28.5143 33.47 28.5143 33.47H28.5183Z" fill="#EDFF81"/>
<path d="M36.3189 29.6432C36.2545 29.6382 36.1866 29.6432 36.1257 29.6729L34.8699 30.1936C34.7376 30.2481 34.6445 30.4217 34.6445 30.6101V31.096C34.6445 31.3985 34.8198 31.6415 35.0381 31.6415C35.0703 31.6415 35.0989 31.6415 35.1275 31.6266L36.4513 31.2002C36.5622 31.1655 36.6445 31.0217 36.6445 30.863V30.1192C36.6445 29.8514 36.5157 29.6679 36.3189 29.6432ZM36.4943 30.7291C36.4943 30.8531 36.4334 30.9671 36.344 30.9969L35.6249 31.2547C35.607 31.2597 35.5855 31.2646 35.564 31.2646C35.4352 31.2646 35.3315 31.1208 35.3315 30.9423V30.5109C35.3315 30.3324 35.4209 30.1737 35.5461 30.1341L36.1758 29.9159C36.1973 29.9109 36.2188 29.906 36.2367 29.906C36.3798 29.906 36.4943 30.0646 36.4943 30.263V30.7192V30.7291Z" fill="#EDFF81"/>
<path d="M40.1523 28.646C40.0539 28.6415 39.9555 28.646 39.8617 28.6774L37.982 29.1939C37.7852 29.2478 37.6492 29.414 37.6445 29.6116V30.0967C37.6445 30.447 38.0008 30.7075 38.3711 30.6267L40.3539 30.2C40.5227 30.1686 40.6398 30.0293 40.6445 29.8631V29.1221C40.6445 28.8481 40.4523 28.6684 40.1617 28.6415L40.1523 28.646ZM40.3773 29.7464C40.3773 29.8766 40.2836 29.9889 40.1523 30.0203L39.0695 30.2853C39.0414 30.2898 39.0133 30.2943 38.9852 30.2943C38.793 30.2943 38.6336 30.1506 38.6336 29.9664V29.5263C38.6336 29.3421 38.7648 29.1849 38.9523 29.1445L39.8992 28.9244C39.9273 28.9199 39.9555 28.9155 39.9883 28.9155C40.2039 28.9155 40.3773 29.0771 40.3773 29.2793V29.7464Z" fill="#EDFF81"/>
<path d="M43.9978 27.6473C43.8619 27.6356 43.7315 27.6473 43.6065 27.6883L41.0956 28.4721C40.8293 28.5481 40.65 28.8055 40.6445 29.098V29.8233C40.6445 30.3497 41.1174 30.7416 41.6119 30.6188L44.2587 29.9754C44.4815 29.9227 44.6391 29.718 44.6445 29.4723V28.3609C44.6445 27.9515 44.3837 27.6883 43.9924 27.6415L43.9978 27.6473ZM44.2641 29.3144C44.2641 29.5074 44.1391 29.6712 43.9706 29.718L42.5521 30.1099C42.5141 30.1158 42.4815 30.1275 42.4434 30.1275C42.1934 30.1275 41.9869 29.9169 41.9815 29.6478V28.9985C41.9815 28.7295 42.1554 28.4955 42.3999 28.4311L43.6391 28.1094C43.6772 28.0977 43.7206 28.0919 43.7587 28.0919C44.0413 28.0919 44.2695 28.3259 44.2695 28.6242V29.3144H44.2641Z" fill="#EDFF81"/>
<path d="M21.6763 36.635C21.634 36.4134 21.634 36.1788 21.6763 35.9507C21.7016 35.8203 21.7482 35.6965 21.8116 35.5987C21.9512 35.3967 22.2431 34.9601 22.48 34.6603C22.5012 34.6342 22.5308 34.6342 22.552 34.6668C22.552 34.6668 22.552 34.6733 22.5562 34.6798C22.6535 34.921 22.6704 35.2208 22.607 35.488C22.607 35.488 22.0782 36.3612 21.7016 36.6415C21.6974 36.6415 21.6847 36.6415 21.6805 36.6219L21.6763 36.635Z" fill="#EDFF81"/>
<path d="M24.6445 34.6102C24.6445 34.6102 24.0187 35.2928 23.6954 35.6319C23.6835 35.6495 23.6628 35.6407 23.6539 35.6231C23.6539 35.6187 23.6509 35.6099 23.648 35.601C23.6302 35.3236 23.6509 34.2931 24.4992 33.6545C24.5378 33.6237 24.5882 33.6501 24.606 33.7073C24.6089 33.725 24.6149 33.7382 24.6149 33.7558L24.6445 34.6146V34.6102Z" fill="#EDFF81"/>
<path d="M27.5843 30.6463L27.6445 32.162L25.714 33.6391C25.714 33.6391 25.6677 33.6487 25.6538 33.6294C25.6492 33.6246 25.6445 33.6101 25.6445 33.6004V32.8764C25.6445 32.5433 25.7742 32.2199 26.001 31.9882C26.376 31.5972 27.001 30.9987 27.5843 30.6415V30.6463Z" fill="#EDFF81"/>
<path d="M31.6445 28.8343C31.6445 28.8343 41.8832 26.0778 47.571 26.6338C47.571 26.6338 48.6823 26.6575 48.4753 27.3634C48.2682 28.0693 46.4723 31.792 45.961 33.6415C45.961 33.6415 48.9993 28.022 49.519 26.7048C49.519 26.7048 50.0937 25.6243 48.7837 25.644C47.4738 25.6637 40.8691 25.3009 31.6445 28.8304V28.8343Z" fill="#EDFF81"/>
<path d="M95.3867 32.2332V15.0634H103.272C104.617 15.0634 105.77 15.2842 106.731 15.7257C107.691 16.1672 108.425 16.8049 108.931 17.6389C109.438 18.4728 109.691 19.4863 109.691 20.6804C109.691 21.8745 109.429 22.9125 108.905 23.7955C108.381 24.6617 107.639 25.333 106.678 25.8068C105.718 26.2806 104.583 26.5181 103.272 26.5181H98.1376L98.1638 32.2332H95.3867ZM98.1638 24.2124H102.932C104.172 24.2124 105.133 23.9258 105.814 23.354C106.495 22.7653 106.836 21.89 106.836 20.7295C106.836 19.5353 106.495 18.6768 105.814 18.154C105.133 17.6311 104.172 17.369 102.932 17.369H98.1638V24.2124ZM108.923 32.2332L116.18 15.0634H119.481L126.791 32.2332H123.726L117.857 17.7615H117.779L111.805 32.2332H108.923ZM112.932 28.4313V26.1256H122.678V28.4313H112.932ZM129.363 32.2332V15.0634H137.354C138.681 15.0634 139.826 15.2674 140.786 15.6766C141.747 16.0691 142.489 16.6409 143.013 17.3936C143.555 18.1462 143.825 19.0692 143.825 20.1653C143.825 21.0315 143.66 21.8009 143.327 22.4709C142.996 23.141 142.516 23.7051 141.887 24.1634C141.275 24.6049 140.524 24.9483 139.634 25.1936C138.743 25.4221 137.73 25.537 136.595 25.537H132.141V32.2332H129.363ZM141.625 32.2332L136.909 25.12L139.555 24.5804L144.742 32.2332H141.625ZM132.141 23.2558H137.171C138.376 23.2558 139.31 22.9938 139.974 22.4709C140.655 21.9313 140.996 21.1632 140.996 20.1653C140.996 19.2164 140.655 18.5142 139.974 18.0559C139.31 17.5975 138.35 17.369 137.092 17.369H132.141V23.2558ZM145.714 32.2332L152.972 15.0634H156.273L163.582 32.2332H160.517L154.648 17.7615H154.569L148.596 32.2332H145.714ZM149.723 28.4313V26.1256H159.469V28.4313H149.723ZM166.154 32.2332V15.0634H172.835C174.757 15.0634 176.425 15.3991 177.839 16.0691C179.272 16.7391 180.381 17.7202 181.166 19.0125C181.953 20.2879 182.346 21.841 182.346 23.6728C182.346 25.4389 181.944 26.9674 181.14 28.2596C180.355 29.5351 179.228 30.5162 177.761 31.203C176.311 31.8898 174.582 32.2332 172.573 32.2332H166.154ZM168.932 29.9276H172.73C174.18 29.9276 175.403 29.6823 176.398 29.1917C177.411 28.6844 178.18 27.973 178.704 27.0578C179.228 26.1256 179.49 24.9974 179.49 23.6728C179.49 22.2825 179.228 21.1219 178.704 20.1898C178.197 19.241 177.447 18.5387 176.451 18.0804C175.455 17.6066 174.215 17.369 172.73 17.369H168.932V29.9276ZM186.085 32.2332V15.0634H188.862V32.2332H186.085ZM199.189 32.4785C198.176 32.4785 197.224 32.4127 196.334 32.2823C195.461 32.1519 194.675 31.9957 193.976 31.8162L192.43 31.3993L192.902 29.4125L194.683 29.7068C195.347 29.8372 196.089 29.9443 196.91 30.0256C197.748 30.107 198.499 30.1483 199.163 30.1483C200.543 30.1483 201.582 29.9276 202.281 29.4861C202.997 29.0277 203.355 28.3745 203.355 27.5238C203.355 27.0823 203.242 26.7066 203.014 26.3955C202.788 26.0843 202.351 25.7823 201.705 25.4879C201.058 25.1936 200.106 24.8747 198.849 24.5313C197.364 24.1221 196.185 23.7219 195.312 23.3294C194.439 22.9202 193.81 22.4387 193.425 21.8823C193.059 21.3104 192.876 20.5745 192.876 19.6747C192.876 18.5296 193.181 17.6066 193.792 16.903C194.421 16.1839 195.268 15.6598 196.334 15.3332C197.399 14.9898 198.578 14.8181 199.87 14.8181C200.657 14.8181 201.469 14.8749 202.307 14.9898C203.145 15.1047 203.975 15.2764 204.796 15.5049L205.818 15.7502L205.398 17.7125L204.036 17.5162C203.39 17.4181 202.718 17.3277 202.019 17.2464C201.32 17.1651 200.639 17.1238 199.975 17.1238C198.596 17.1238 197.539 17.3368 196.805 17.7615C196.072 18.1862 195.705 18.8162 195.705 19.6502C195.705 20.0749 195.818 20.4274 196.046 20.7049C196.29 20.9824 196.744 21.2368 197.408 21.4653C198.089 21.6938 199.076 21.9881 200.368 22.3483C201.818 22.7085 202.971 23.1087 203.827 23.5502C204.7 23.9917 205.32 24.5068 205.687 25.0955C206.071 25.6841 206.263 26.4122 206.263 27.2785C206.263 28.4726 205.949 29.4538 205.32 30.2219C204.691 30.99 203.844 31.5632 202.779 31.9389C201.713 32.299 200.517 32.4785 199.189 32.4785ZM209.879 32.2332V15.0634H223.371V17.369H212.656V22.2992H222.323V24.6049H212.656V29.9276H223.555V32.2332H209.879ZM239.686 32.3804L232.219 15.0634H235.311L241.258 29.1672H241.337L247.205 15.0634H250.218L242.726 32.3804H239.686ZM259.708 32.4785C257.857 32.4785 256.241 32.1106 254.861 31.3747C253.482 30.6221 252.408 29.5841 251.639 28.2596C250.871 26.9183 250.486 25.373 250.486 23.6238C250.486 21.89 250.871 20.3615 251.639 19.037C252.425 17.7125 253.517 16.6823 254.914 15.9464C256.312 15.1938 257.91 14.8181 259.708 14.8181C261.578 14.8181 263.202 15.1938 264.581 15.9464C265.979 16.6823 267.061 17.7202 267.829 19.0615C268.599 20.386 268.982 21.9146 268.982 23.6483C268.982 25.3821 268.589 26.9183 267.803 28.2596C267.017 29.5841 265.927 30.6221 264.528 31.3747C263.149 32.1106 261.542 32.4785 259.708 32.4785ZM259.708 30.0747C260.983 30.0747 262.101 29.8217 263.061 29.3143C264.022 28.7915 264.774 28.0466 265.314 27.0823C265.857 26.1179 266.127 24.9651 266.127 23.6238C266.127 22.2992 265.857 21.1632 265.314 20.2144C264.79 19.25 264.048 18.5142 263.088 18.0068C262.128 17.484 261.001 17.2219 259.708 17.2219C258.468 17.2219 257.368 17.484 256.407 18.0068C255.447 18.5142 254.695 19.25 254.154 20.2144C253.613 21.1632 253.341 22.307 253.341 23.6483C253.341 24.9728 253.603 26.1179 254.127 27.0823C254.669 28.0466 255.421 28.7915 256.38 29.3143C257.341 29.8217 258.45 30.0747 259.708 30.0747ZM276.635 32.2332V26.0276L269.247 15.0634H272.705L278.024 23.4766H278.129L283.421 15.0634H286.774L279.412 26.003V32.2332H276.635ZM285.075 32.2332L292.332 15.0634H295.634L302.943 32.2332H299.878L294.009 17.7615H293.93L287.957 32.2332H285.075ZM289.084 28.4313V26.1256H298.83V28.4313H289.084ZM314.214 32.4785C311.961 32.4785 310.03 32.1274 308.424 31.4238C306.834 30.7202 305.611 29.7068 304.756 28.3823C303.918 27.0578 303.499 25.4711 303.499 23.6238C303.499 22.1843 303.761 20.9179 304.285 19.8219C304.809 18.7259 305.532 17.8106 306.459 17.0747C307.402 16.3221 308.493 15.7579 309.734 15.3823C310.974 15.0066 312.292 14.8181 313.69 14.8181C314.511 14.8181 315.331 14.8917 316.153 15.0389C316.991 15.1692 317.803 15.3745 318.589 15.6521L319.428 15.9464L318.904 17.9823L317.934 17.7615C317.2 17.5821 316.483 17.4504 315.786 17.369C315.087 17.271 314.414 17.2219 313.769 17.2219C312.354 17.2219 311.087 17.4594 309.97 17.9332C308.852 18.407 307.969 19.1183 307.324 20.0672C306.677 21.016 306.354 22.2089 306.354 23.6483C306.354 25.0542 306.659 26.2483 307.271 27.2294C307.9 28.1938 308.799 28.9296 309.97 29.437C311.157 29.9276 312.58 30.1728 314.24 30.1728C314.816 30.1728 315.427 30.1315 316.074 30.0502C316.719 29.9689 317.358 29.8462 317.987 29.6823V25.169H312.459V22.8634H320.764V31.0068C320.135 31.2843 319.454 31.5387 318.72 31.7672C318.003 31.9957 317.261 32.1674 316.493 32.2823C315.724 32.4127 314.964 32.4785 314.214 32.4785ZM324.807 32.2332V15.0634H338.299V17.369H327.584V22.2992H337.251V24.6049H327.584V29.9276H338.482V32.2332H324.807ZM347.633 32.4785C346.619 32.4785 345.668 32.4127 344.777 32.2823C343.903 32.1519 343.117 31.9957 342.419 31.8162L340.874 31.3993L341.345 29.4125L343.127 29.7068C343.79 29.8372 344.532 29.9443 345.353 30.0256C346.192 30.107 346.942 30.1483 347.606 30.1483C348.986 30.1483 350.025 29.9276 350.724 29.4861C351.44 29.0277 351.798 28.3745 351.798 27.5238C351.798 27.0823 351.684 26.7066 351.458 26.3955C351.231 26.0843 350.793 25.7823 350.148 25.4879C349.501 25.1936 348.55 24.8747 347.292 24.5313C345.807 24.1221 344.628 23.7219 343.755 23.3294C342.881 22.9202 342.252 22.4387 341.869 21.8823C341.502 21.3104 341.319 20.5745 341.319 19.6747C341.319 18.5296 341.624 17.6066 342.236 16.903C342.865 16.1839 343.711 15.6598 344.777 15.3332C345.842 14.9898 347.02 14.8181 348.314 14.8181C349.1 14.8181 349.912 14.8749 350.75 14.9898C351.589 15.1047 352.417 15.2764 353.24 15.5049L354.261 15.7502L353.842 17.7125L352.48 17.5162C351.833 17.4181 351.16 17.3277 350.462 17.2464C349.763 17.1651 349.082 17.1238 348.419 17.1238C347.038 17.1238 345.982 17.3368 345.249 17.7615C344.515 18.1862 344.148 18.8162 344.148 19.6502C344.148 20.0749 344.261 20.4274 344.489 20.7049C344.733 20.9824 345.187 21.2368 345.851 21.4653C346.533 21.6938 347.518 21.9881 348.812 22.3483C350.261 22.7085 351.414 23.1087 352.27 23.5502C353.143 23.9917 353.763 24.5068 354.13 25.0955C354.514 25.6841 354.707 26.4122 354.707 27.2785C354.707 28.4726 354.392 29.4538 353.763 30.2219C353.135 30.99 352.286 31.5632 351.222 31.9389C350.156 32.299 348.959 32.4785 347.633 32.4785Z" fill="#EDFF81"/>
</g>
</svg>
